<?xml version="1.0" encoding="UTF-8"?>
<svg version="1.1" xmlns="http://www.w3.org/2000/svg" width="297" height="296">
<path d="M0 0 C98.01 0 196.02 0 297 0 C297 97.68 297 195.36 297 296 C198.99 296 100.98 296 0 296 C0 198.32 0 100.64 0 0 Z " fill="#17BC5A" transform="translate(0,0)"/>
<path d="M0 0 C98.01 0 196.02 0 297 0 C297 97.68 297 195.36 297 296 C198.99 296 100.98 296 0 296 C0 198.32 0 100.64 0 0 Z M38 27 C38 27.66 38 28.32 38 29 C36.7625 29.061875 36.7625 29.061875 35.5 29.125 C30.70396648 30.32400838 27.77228797 32.91082253 24 36 C22.989375 36.721875 21.97875 37.44375 20.9375 38.1875 C16.6061099 41.83875446 13.52537563 46.98660638 11 52 C11 53.32 11 54.64 11 56 C10.34 56 9.68 56 9 56 C8.05900726 59.98067376 7.86743222 63.69435428 7.85282898 67.78024292 C7.84915229 68.44927867 7.8454756 69.11831442 7.8416875 69.80762398 C7.83070298 72.04216737 7.82681582 74.27666418 7.82299805 76.51123047 C7.81672962 78.11635484 7.81008248 79.72147776 7.80308533 81.32659912 C7.78209397 86.59011839 7.77169003 91.85363781 7.76171875 97.1171875 C7.75766986 98.93134705 7.7535529 100.74550644 7.74936867 102.55966568 C7.73033068 111.08074439 7.71609469 119.6018145 7.7077567 128.12291038 C7.69797823 137.95293981 7.67163701 147.78274442 7.63125581 157.61269462 C7.60109379 165.21624087 7.58628789 172.81972265 7.58297569 180.42332757 C7.58062603 184.96251484 7.57167601 189.50146155 7.54651451 194.04058456 C7.52322609 198.31046578 7.51900354 202.57994812 7.52927589 206.8498764 C7.52977112 208.41435956 7.52345456 209.97886242 7.50971985 211.54328537 C7.26281746 222.46580579 7.26281746 222.46580579 12 232 C12.49757813 232.65871094 12.99515625 233.31742188 13.5078125 233.99609375 C19.58859848 239.41592474 26.6644595 238.52429615 34.34375 238.2109375 C36.15359375 238.10652344 36.15359375 238.10652344 38 238 C38 237.34 38 236.68 38 236 C52.52 236.33 67.04 236.66 82 237 C82 237.66 82 238.32 82 239 C82.66386719 239.12117187 83.32773438 239.24234375 84.01171875 239.3671875 C88.5787818 240.23392939 92.69311595 241.22657715 97 243 C98.32 243 99.64 243 101 243 C101 243.66 101 244.32 101 245 C102.6232687 245.6708712 104.24867578 246.33657029 105.875 247 C107.23238281 247.556875 107.23238281 247.556875 108.6171875 248.125 C110.88983858 249.11490226 110.88983858 249.11490226 113 249 C113 249.66 113 250.32 113 251 C113.99 251 114.98 251 116 251 C116 251.66 116 252.32 116 253 C118.9826906 254.52448631 121.818202 255.93940067 125 257 C125 257.66 125 258.32 125 259 C126.35628917 259.86941614 127.71417152 260.73640781 129.078125 261.59375 C133.68162321 264.96216332 137.80261605 269.38071834 141.46484375 273.74609375 C144.20735259 275.98615822 147.16891345 275.52152078 150.56640625 275.41796875 C154.29332299 274.7778723 155.72744799 272.92185258 158 270 C168.43589744 259.28205128 168.43589744 259.28205128 173 257 C173 256.34 173 255.68 173 255 C176.58752742 253.13448574 180.27812193 251.57464072 184 250 C184 249.34 184 248.68 184 248 C184.99 248 185.98 248 187 248 C187 247.34 187 246.68 187 246 C187.825 245.896875 188.65 245.79375 189.5 245.6875 C193.59289012 244.88353944 197.12540225 243.53647842 201 242 C201 241.34 201 240.68 201 240 C204.63 239.67 208.26 239.34 212 239 C212 238.34 212 237.68 212 237 C218.33544053 236.97464582 224.67086797 236.95713134 231.00634766 236.94506836 C233.16162607 236.94003948 235.31690107 236.93321558 237.47216797 236.92456055 C240.56999554 236.91243179 243.66777801 236.90675722 246.765625 236.90234375 C248.21113739 236.89460182 248.21113739 236.89460182 249.68585205 236.88670349 C250.58648376 236.88662796 251.48711548 236.88655243 252.41503906 236.88647461 C253.20557678 236.884254 253.9961145 236.88203339 254.81060791 236.87974548 C257.00263129 237.00014453 258.88015893 237.45555585 261 238 C263.59373914 238.06898242 266.15810197 238.09434752 268.75 238.0625 C269.79607422 238.05573242 269.79607422 238.05573242 270.86328125 238.04882812 C272.57555803 238.0371002 274.28779033 238.01916653 276 238 C276 237.34 276 236.68 276 236 C276.53625 235.938125 277.0725 235.87625 277.625 235.8125 C281.02618742 234.64893588 283.79192669 232.81371628 286 230 C287.5883887 225.27334786 288.25071805 221.15679267 288.25396729 216.18252563 C288.25708727 215.53360993 288.26020725 214.88469422 288.26342177 214.2161144 C288.27134096 212.06146181 288.26510214 209.90709564 288.25878906 207.75244141 C288.26150169 206.19952735 288.26506414 204.64661457 288.26940918 203.09370422 C288.27850468 198.88907082 288.27500025 194.6845359 288.26865101 190.47990084 C288.2635745 186.07053144 288.26828722 181.66117027 288.27142334 177.25180054 C288.27505894 169.84591159 288.27027534 162.44006257 288.26074219 155.03417969 C288.24986646 146.48692387 288.25337844 137.93976355 288.264395 129.39251006 C288.27348906 122.04111308 288.27474256 114.68974476 288.26951766 107.33834398 C288.26640856 102.95346855 288.26595921 98.56863791 288.27259064 94.18376541 C288.27839405 90.05838013 288.27431269 85.93311714 288.26280212 81.80774498 C288.26017115 80.29894272 288.26089373 78.79013006 288.26532745 77.28133202 C288.3842836 63.05799728 288.3842836 63.05799728 283.375 49.9375 C282.92898438 49.18339844 282.48296875 48.42929687 282.0234375 47.65234375 C281.68570312 47.10707031 281.34796875 46.56179687 281 46 C280.34 46 279.68 46 279 46 C278.6596875 45.1646875 278.6596875 45.1646875 278.3125 44.3125 C275.88126923 40.02890292 272.10175395 36.68735604 268 34 C267.34 34 266.68 34 266 34 C266 33.34 266 32.68 266 32 C265.01 32 264.02 32 263 32 C263 31.34 263 30.68 263 30 C261.96875 29.525625 260.9375 29.05125 259.875 28.5625 C259.29492188 28.29566406 258.71484375 28.02882813 258.1171875 27.75390625 C253.54463621 26.12567304 248.89499413 25.87265234 244.078125 25.8671875 C242.41523438 25.86525391 242.41523438 25.86525391 240.71875 25.86328125 C239.5740625 25.86714844 238.429375 25.87101562 237.25 25.875 C236.12078125 25.87113281 234.9915625 25.86726563 233.828125 25.86328125 C224.70321639 25.87384249 216.00251892 26.40487093 207.1171875 28.5234375 C204.09562004 29.20356892 201.07106975 29.60794854 198 30 C198 30.66 198 31.32 198 32 C193.545 32.495 193.545 32.495 189 33 C189 33.66 189 34.32 189 35 C187.96875 35.103125 186.9375 35.20625 185.875 35.3125 C182.04916055 35.99127797 179.36629975 37.11158795 176 39 C176 39.66 176 40.32 176 41 C175.43539062 41.10183594 174.87078125 41.20367187 174.2890625 41.30859375 C165.4386815 43.9818317 154.20246842 53.45558438 149 61 C144.03819857 60.26491831 141.03495407 57.09089753 137.6875 53.5625 C134.42262476 50.44947942 129.74947578 46 125 46 C125 45.34 125 44.68 125 44 C123.2335343 42.9923048 121.46166177 41.99408286 119.6875 41 C118.70136719 40.443125 117.71523437 39.88625 116.69921875 39.3125 C114.05057529 37.78135247 114.05057529 37.78135247 111 38 C111 37.34 111 36.68 111 36 C110.26394531 35.81824219 109.52789062 35.63648438 108.76953125 35.44921875 C107.79371094 35.19785156 106.81789063 34.94648437 105.8125 34.6875 C104.84957031 34.44386719 103.88664062 34.20023438 102.89453125 33.94921875 C100 33 100 33 97.5546875 31.46484375 C94.44704939 29.68294116 91.85479893 29.31930203 88.3125 28.875 C82.16183206 28.08091603 82.16183206 28.08091603 80 27 C71.36728403 25.88476875 62.62722536 25.89758138 53.9375 25.875 C52.93823486 25.87040771 51.93896973 25.86581543 50.90942383 25.86108398 C49.48279419 25.86410522 49.48279419 25.86410522 48.02734375 25.8671875 C47.17906006 25.86831543 46.33077637 25.86944336 45.45678711 25.87060547 C42.88895579 26.0058485 40.50583303 26.43630652 38 27 Z " fill="#F7F7F5" transform="translate(0,0)"/>
<path d="M0 0 C1.25643311 -0.01353516 2.51286621 -0.02707031 3.80737305 -0.04101562 C11.94441525 -0.00169833 17.21383414 0.37056869 23.640625 5.64453125 C24.46046875 6.48371094 25.2803125 7.32289062 26.125 8.1875 C26.95515625 9.01894531 27.7853125 9.85039063 28.640625 10.70703125 C32.75072553 15.61472122 34.25062849 19.66521673 34.24249268 26.05012512 C34.24739594 27.01843318 34.24739594 27.01843318 34.25239825 28.00630301 C34.25964336 30.15524351 34.24555732 32.30349439 34.23144531 34.45239258 C34.23223666 35.99843461 34.23433537 37.54447644 34.23764038 39.09051514 C34.24276397 43.27820539 34.22926225 47.46564894 34.21211338 51.65329957 C34.19706165 56.03437839 34.19825113 60.41545422 34.19744873 64.79655457 C34.1937596 72.14785977 34.178806 79.4990714 34.15625 86.8503418 C34.12732174 96.29789555 34.1170213 105.74537419 34.1125679 115.19296741 C34.10859454 123.30745611 34.09609598 131.42192837 34.08222103 139.53640532 C34.07811656 142.14990371 34.07519385 144.76340152 34.07242584 147.37690163 C34.06754611 151.47349929 34.05736532 155.57005098 34.04298782 159.66662598 C34.03845186 161.17394788 34.03562311 162.68127598 34.03458023 164.18860435 C34.03284406 166.23734313 34.02434671 168.28607293 34.01544189 170.33479309 C34.01246723 171.48385037 34.00949257 172.63290766 34.00642776 173.81678486 C33.875 176.375 33.875 176.375 32.875 177.375 C30.17391496 177.284084 27.50569689 177.13759234 24.8125 176.9375 C24.05388672 176.88529297 23.29527344 176.83308594 22.51367188 176.77929688 C20.63378278 176.64924165 18.75434315 176.51271962 16.875 176.375 C16.875 175.715 16.875 175.055 16.875 174.375 C-2.87890979 174.66967183 -2.87890979 174.66967183 -22.4609375 176.97265625 C-25.38229657 177.41385857 -28.17490752 177.44026753 -31.125 177.375 C-31.125 178.035 -31.125 178.695 -31.125 179.375 C-32.08921875 179.56835938 -33.0534375 179.76171875 -34.046875 179.9609375 C-35.31015625 180.22132813 -36.5734375 180.48171875 -37.875 180.75 C-39.12796875 181.00523437 -40.3809375 181.26046875 -41.671875 181.5234375 C-44.993404 182.20820258 -44.993404 182.20820258 -47.328125 183.4765625 C-49.125 184.375 -49.125 184.375 -53.125 184.375 C-53.125 185.035 -53.125 185.695 -53.125 186.375 C-54.39191507 187.04908308 -55.66370749 187.71400497 -56.9375 188.375 C-57.64519531 188.74625 -58.35289062 189.1175 -59.08203125 189.5 C-61.125 190.375 -61.125 190.375 -64.125 190.375 C-64.125 191.035 -64.125 191.695 -64.125 192.375 C-65.775 192.705 -67.425 193.035 -69.125 193.375 C-69.125 194.035 -69.125 194.695 -69.125 195.375 C-70.445 195.705 -71.765 196.035 -73.125 196.375 C-73.125 197.035 -73.125 197.695 -73.125 198.375 C-74.445 198.705 -75.765 199.035 -77.125 199.375 C-77.125 200.035 -77.125 200.695 -77.125 201.375 C-78.115 201.705 -79.105 202.035 -80.125 202.375 C-80.17172039 181.09569041 -80.20698905 159.81638928 -80.22862434 138.5370388 C-80.23893698 128.65667379 -80.25299711 118.77634065 -80.27587891 108.89599609 C-80.29581312 100.28430905 -80.30871653 91.67264509 -80.31317699 83.06093562 C-80.31578431 78.50109858 -80.32191245 73.94132757 -80.33646011 69.38151169 C-80.35004449 65.08881082 -80.3542209 60.79620314 -80.35121536 56.50348282 C-80.35176514 54.92891687 -80.3557375 53.35434777 -80.36341095 51.77980042 C-80.37338568 49.62728679 -80.3709598 47.47512333 -80.36550903 45.32260132 C-80.36735262 44.11873968 -80.36919621 42.91487804 -80.37109566 41.67453575 C-79.72942 33.07124799 -75.64567764 28.43296001 -69.390625 23 C-58.94110577 14.375 -58.94110577 14.375 -55.125 14.375 C-55.125 13.715 -55.125 13.055 -55.125 12.375 C-49.5 9.375 -49.5 9.375 -46.125 9.375 C-46.125 8.715 -46.125 8.055 -46.125 7.375 C-44.5426994 7.03679834 -42.95910625 6.70464061 -41.375 6.375 C-40.49328125 6.189375 -39.6115625 6.00375 -38.703125 5.8125 C-36.125 5.375 -36.125 5.375 -32.125 5.375 C-32.125 4.715 -32.125 4.055 -32.125 3.375 C-21.43248161 0.77537179 -10.99986093 0.04958925 0 0 Z " fill="#EE3E32" transform="translate(237.125,43.625)"/>
<path d="M0 0 C1.42590454 -0.00314209 1.42590454 -0.00314209 2.88061523 -0.00634766 C3.88036377 -0.0016748 4.8801123 0.00299805 5.91015625 0.0078125 C7.45135132 0.01288818 7.45135132 0.01288818 9.02368164 0.01806641 C19.55611029 0.08928182 29.77514303 0.27035265 39.97265625 3.1328125 C41.18953125 3.2771875 42.40640625 3.4215625 43.66015625 3.5703125 C46.97265625 4.1328125 46.97265625 4.1328125 49.22265625 5.5078125 C53.48490704 8.02641524 58.19307106 8.95256467 62.97265625 10.1328125 C62.97265625 10.7928125 62.97265625 11.4528125 62.97265625 12.1328125 C63.50890625 12.2359375 64.04515625 12.3390625 64.59765625 12.4453125 C67.60628229 13.31623056 70.19785685 14.68760448 72.97265625 16.1328125 C73.75640625 16.5246875 74.54015625 16.9165625 75.34765625 17.3203125 C75.88390625 17.5884375 76.42015625 17.8565625 76.97265625 18.1328125 C76.97265625 18.7928125 76.97265625 19.4528125 76.97265625 20.1328125 C77.67390625 20.3803125 78.37515625 20.6278125 79.09765625 20.8828125 C85.79432874 23.79440924 90.43248053 28.33410452 95.60546875 33.40234375 C97.77663725 35.37094581 97.77663725 35.37094581 100.140625 35.0234375 C102.33427302 33.95701586 103.77407276 32.47882898 105.4375 30.71875 C111.17914593 24.78717685 117.64370072 19.01804194 124.97265625 15.1328125 C125.96265625 15.1328125 126.95265625 15.1328125 127.97265625 15.1328125 C127.97265625 14.4728125 127.97265625 13.8128125 127.97265625 13.1328125 C129.38491551 12.45685935 130.8026853 11.79241191 132.22265625 11.1328125 C133.0115625 10.7615625 133.80046875 10.3903125 134.61328125 10.0078125 C136.97265625 9.1328125 136.97265625 9.1328125 140.97265625 9.1328125 C140.97265625 8.4728125 140.97265625 7.8128125 140.97265625 7.1328125 C145.42765625 6.6378125 145.42765625 6.6378125 149.97265625 6.1328125 C149.97265625 5.4728125 149.97265625 4.8128125 149.97265625 4.1328125 C150.96007812 4.00003906 151.9475 3.86726563 152.96484375 3.73046875 C154.24617187 3.55386719 155.5275 3.37726562 156.84765625 3.1953125 C158.12382812 3.02128906 159.4 2.84726562 160.71484375 2.66796875 C163.84825079 2.31848023 163.84825079 2.31848023 165.97265625 1.1328125 C173.63412125 -0.1039766 181.42181034 -0.05025292 189.16015625 -0.0546875 C190.86461914 -0.07305664 190.86461914 -0.07305664 192.60351562 -0.09179688 C198.47522226 -0.10206808 203.44264264 0.12392016 208.97265625 2.1328125 C210.10703125 2.5040625 211.24140625 2.8753125 212.41015625 3.2578125 C213.25578125 3.5465625 214.10140625 3.8353125 214.97265625 4.1328125 C214.97265625 4.7928125 214.97265625 5.4528125 214.97265625 6.1328125 C215.96265625 6.1328125 216.95265625 6.1328125 217.97265625 6.1328125 C217.97265625 6.7928125 217.97265625 7.4528125 217.97265625 8.1328125 C218.69453125 8.3596875 219.41640625 8.5865625 220.16015625 8.8203125 C223.53483906 10.39516448 225.45295638 12.41418896 227.97265625 15.1328125 C228.57078125 15.6896875 229.16890625 16.2465625 229.78515625 16.8203125 C230.97265625 18.1328125 230.97265625 18.1328125 230.97265625 20.1328125 C231.63265625 20.1328125 232.29265625 20.1328125 232.97265625 20.1328125 C233.96195086 22.00248855 234.93866094 23.87882628 235.91015625 25.7578125 C236.72806641 27.32402344 236.72806641 27.32402344 237.5625 28.921875 C239.86451991 34.16359347 240.09815602 39.16884977 240.10636902 44.8434906 C240.10863458 45.49296301 240.11090013 46.14243543 240.11323434 46.81158882 C240.11953208 48.97393896 240.11874772 51.13622573 240.11791992 53.29858398 C240.12091401 54.85459473 240.12431711 56.41060474 240.12809753 57.96661377 C240.13691518 62.18354012 240.13927467 66.40044617 240.13991332 70.61738086 C240.14062495 73.25373784 240.1427614 75.89008968 240.14541054 78.52644539 C240.15465571 87.72865247 240.15874636 96.93084507 240.15795898 106.13305664 C240.15735802 114.70361458 240.16791556 123.27410962 240.18370265 131.84465164 C240.19678589 139.21042916 240.20214257 146.57618613 240.20150357 153.94197518 C240.20124887 158.33798662 240.20408505 162.7339421 240.21468163 167.12994194 C240.2243761 171.26432627 240.22443255 175.39860128 240.21716499 179.5329895 C240.21612091 181.04747236 240.21847154 182.56196207 240.22452545 184.07643318 C240.23227343 186.1494666 240.22758242 188.22212508 240.21989441 190.29515076 C240.22043918 191.45342597 240.22098394 192.61170118 240.22154522 193.80507565 C239.885041 198.30426052 239.24522412 202.56586749 236.3515625 206.12890625 C235.75214844 206.60457031 235.15273438 207.08023438 234.53515625 207.5703125 C233.93832031 208.06402344 233.34148437 208.55773437 232.7265625 209.06640625 C230.97265625 210.1328125 230.97265625 210.1328125 227.97265625 210.1328125 C227.97265625 210.7928125 227.97265625 211.4528125 227.97265625 212.1328125 C225.55591401 212.15986558 223.13947685 212.17967688 220.72265625 212.1953125 C220.04074219 212.20369141 219.35882813 212.21207031 218.65625 212.22070312 C213.41395035 212.24615118 213.41395035 212.24615118 211.02972412 211.63380432 C208.74387607 211.07709387 206.73916041 211.01268187 204.38769531 211.01928711 C203.03674774 211.01940041 203.03674774 211.01940041 201.6585083 211.01951599 C200.21299591 211.02725792 200.21299591 211.02725792 198.73828125 211.03515625 C197.74511902 211.0365712 196.75195679 211.03798615 195.72869873 211.03944397 C192.55998713 211.04503662 189.39134646 211.0575878 186.22265625 211.0703125 C184.07291769 211.07532845 181.92317802 211.07989119 179.7734375 211.08398438 C174.50648626 211.09500364 169.23957632 211.1117345 163.97265625 211.1328125 C163.97265625 211.7928125 163.97265625 212.4528125 163.97265625 213.1328125 C160.34265625 213.4628125 156.71265625 213.7928125 152.97265625 214.1328125 C152.97265625 214.7928125 152.97265625 215.4528125 152.97265625 216.1328125 C151.20406934 216.80541601 149.43269609 217.47069645 147.66015625 218.1328125 C146.67402344 218.5040625 145.68789062 218.8753125 144.671875 219.2578125 C141.97265625 220.1328125 141.97265625 220.1328125 138.97265625 220.1328125 C138.97265625 220.7928125 138.97265625 221.4528125 138.97265625 222.1328125 C137.98265625 222.1328125 136.99265625 222.1328125 135.97265625 222.1328125 C135.97265625 222.7928125 135.97265625 223.4528125 135.97265625 224.1328125 C134.70310325 224.78115904 133.43195919 225.42639065 132.16015625 226.0703125 C131.45246094 226.42996094 130.74476563 226.78960937 130.015625 227.16015625 C127.97265625 228.1328125 127.97265625 228.1328125 124.97265625 229.1328125 C124.97265625 229.7928125 124.97265625 230.4528125 124.97265625 231.1328125 C123.1796875 232.71875 123.1796875 232.71875 120.78515625 234.5078125 C119.96273437 235.13300781 119.1403125 235.75820313 118.29296875 236.40234375 C116.58761189 237.67418397 114.87570012 238.937247 113.16015625 240.1953125 C110.51949349 242.53418523 108.87598208 245.17937587 106.97265625 248.1328125 C103.24331853 249.99748136 99.03454478 249.68259041 94.97265625 249.1328125 C92.41015625 247.1953125 92.41015625 247.1953125 89.97265625 244.1328125 C88.46944518 242.55335159 86.94696596 240.99210149 85.41015625 239.4453125 C84.66636719 238.67832031 83.92257813 237.91132813 83.15625 237.12109375 C81.1454448 235.2901459 79.45841547 234.1868646 76.97265625 233.1328125 C76.97265625 232.4728125 76.97265625 231.8128125 76.97265625 231.1328125 C74.03545117 229.60981727 71.05579135 228.33180948 67.97265625 227.1328125 C67.97265625 226.4728125 67.97265625 225.8128125 67.97265625 225.1328125 C66.98265625 225.1328125 65.99265625 225.1328125 64.97265625 225.1328125 C64.97265625 224.4728125 64.97265625 223.8128125 64.97265625 223.1328125 C64.05033203 222.82537109 64.05033203 222.82537109 63.109375 222.51171875 C59.73046875 221.38541667 56.3515625 220.25911458 52.97265625 219.1328125 C52.97265625 218.4728125 52.97265625 217.8128125 52.97265625 217.1328125 C51.92078125 217.0090625 50.86890625 216.8853125 49.78515625 216.7578125 C46.46027889 216.21275064 44.0583574 215.36709296 40.97265625 214.1328125 C38.64668114 213.7515051 36.31353467 213.40820996 33.97265625 213.1328125 C33.97265625 212.4728125 33.97265625 211.8128125 33.97265625 211.1328125 C19.45265625 210.8028125 4.93265625 210.4728125 -10.02734375 210.1328125 C-10.02734375 210.7928125 -10.02734375 211.4528125 -10.02734375 212.1328125 C-27.75520897 213.33761887 -27.75520897 213.33761887 -33.46484375 209.0078125 C-37.44948951 205.38540727 -39.79030009 201.22677945 -40.39928055 195.84724331 C-40.39781399 194.64987576 -40.39634743 193.45250822 -40.39483643 192.21885681 C-40.39810527 191.5475555 -40.40137411 190.8762542 -40.404742 190.18461043 C-40.41199109 187.94827897 -40.39789675 185.71260924 -40.38378906 183.47631836 C-40.38458038 181.86780181 -40.38667901 180.25928545 -40.38998413 178.65077209 C-40.39511004 174.29133497 -40.38159913 169.93213464 -40.36445713 165.57273555 C-40.34940089 161.00801475 -40.35059468 156.44329677 -40.34979248 151.8785553 C-40.34610222 144.21448738 -40.33114668 136.55050916 -40.30859375 128.88647461 C-40.27971106 119.0514485 -40.26936888 109.21649455 -40.26491165 99.38143063 C-40.26093003 90.92193637 -40.24842945 82.46245777 -40.23456478 74.00297475 C-40.23046909 71.28538438 -40.2275418 68.56779457 -40.22476959 65.85020256 C-40.2198703 61.57958913 -40.20965623 57.30901924 -40.19533157 53.03842735 C-40.19081563 51.47150821 -40.18797157 49.90458323 -40.18692398 48.33765793 C-40.18517293 46.19832332 -40.17727611 44.05909684 -40.16778564 41.91978455 C-40.16481098 40.72279403 -40.16183632 39.52580351 -40.15877151 38.29254055 C-40.04054844 35.45027391 -39.6810044 32.8950606 -39.02734375 30.1328125 C-38.36734375 30.1328125 -37.70734375 30.1328125 -37.02734375 30.1328125 C-36.98609375 29.3284375 -36.94484375 28.5240625 -36.90234375 27.6953125 C-34.21234648 16.74318075 -24.94269759 9.79949648 -15.88671875 3.98046875 C-14.02734375 3.1328125 -14.02734375 3.1328125 -10.02734375 3.1328125 C-10.02734375 2.4728125 -10.02734375 1.8128125 -10.02734375 1.1328125 C-6.62690873 0.36787604 -3.48302759 0.00463125 0 0 Z M-16.02734375 27.1328125 C-16.56359375 27.6071875 -17.09984375 28.0815625 -17.65234375 28.5703125 C-21.46650651 32.90458837 -22.40154901 37.21607262 -22.3881073 42.85263062 C-22.39067057 43.50295844 -22.39323385 44.15328626 -22.3958748 44.82332098 C-22.40079091 46.98842847 -22.38435686 49.15282856 -22.36791992 51.31787109 C-22.36707317 52.87538639 -22.36754972 54.43290288 -22.36924744 55.99041748 C-22.37010696 60.20904133 -22.35248824 64.42740845 -22.33152556 68.64597273 C-22.31275157 73.05820884 -22.31100775 77.47045106 -22.30744934 81.88272095 C-22.298131 90.23366288 -22.27352007 98.58448677 -22.24340087 106.93537676 C-22.2098503 116.44438725 -22.1933692 125.95340342 -22.17831457 135.46245837 C-22.14697033 155.01930893 -22.09421392 174.57605327 -22.02734375 194.1328125 C-21.08755173 194.06338943 -20.1477597 193.99396637 -19.17948914 193.92243958 C-17.93520645 193.83177719 -16.69092377 193.74111481 -15.40893555 193.64770508 C-14.18039352 193.55765701 -12.9518515 193.46760895 -11.68608093 193.37483215 C3.16277241 192.39260409 17.80061208 192.75441059 32.53515625 194.8828125 C33.64592529 195.03967529 34.75669434 195.19653809 35.90112305 195.3581543 C41.72067693 196.28376036 46.73514023 197.57715392 51.99560547 200.26367188 C55.25846505 201.69807297 58.43925833 201.87583811 61.97265625 202.1328125 C61.97265625 202.7928125 61.97265625 203.4528125 61.97265625 204.1328125 C63.40694626 204.80635749 64.84522682 205.47140951 66.28515625 206.1328125 C67.48591797 206.6896875 67.48591797 206.6896875 68.7109375 207.2578125 C71.03479584 208.31321917 71.03479584 208.31321917 73.97265625 208.1328125 C73.97265625 208.7928125 73.97265625 209.4528125 73.97265625 210.1328125 C75.45765625 210.9371875 75.45765625 210.9371875 76.97265625 211.7578125 C80.66696653 213.84949938 83.95224823 216.32486586 87.2734375 218.9609375 C88.90303874 220.32205682 88.90303874 220.32205682 90.97265625 220.1328125 C91.11289529 198.75774671 91.21866112 177.38275692 91.28352928 156.00732422 C91.314451 146.08203745 91.3565993 136.15703674 91.42529297 126.23193359 C91.48514658 117.57993978 91.52381765 108.92815316 91.53718722 100.27595806 C91.54500093 95.69570449 91.56332941 91.1160436 91.60703659 86.53598022 C91.6478721 82.22173758 91.66030344 77.90832968 91.65130234 73.59391212 C91.65294812 72.01369497 91.66481859 70.43344887 91.6878891 68.85339928 C91.91026056 57.82298253 91.91026056 57.82298253 86.47979164 48.54154968 C85.98243696 48.07666641 85.48508228 47.61178314 84.97265625 47.1328125 C84.23402344 46.37871094 83.49539062 45.62460938 82.734375 44.84765625 C80.49271564 42.92683703 78.24733066 41.0145199 75.97265625 39.1328125 C75.23789063 38.51148437 74.503125 37.89015625 73.74609375 37.25 C68.23975994 32.7554307 61.34857845 27.1328125 53.97265625 27.1328125 C53.97265625 26.4728125 53.97265625 25.8128125 53.97265625 25.1328125 C39.02541387 19.58978919 22.7136747 17.78431629 6.84765625 17.6328125 C5.36543579 17.60537964 5.36543579 17.60537964 3.85327148 17.57739258 C-5.08150395 17.65381096 -9.91795245 20.51430526 -16.02734375 27.1328125 Z M156.97265625 21.1328125 C156.97265625 21.7928125 156.97265625 22.4528125 156.97265625 23.1328125 C155.95945312 23.22369141 155.95945312 23.22369141 154.92578125 23.31640625 C153.58773437 23.44208984 153.58773437 23.44208984 152.22265625 23.5703125 C151.3409375 23.65152344 150.45921875 23.73273437 149.55078125 23.81640625 C147.27915173 24.09519715 145.17413802 24.52071827 142.97265625 25.1328125 C142.97265625 25.7928125 142.97265625 26.4528125 142.97265625 27.1328125 C141.58046875 27.3184375 141.58046875 27.3184375 140.16015625 27.5078125 C136.8334039 27.94814332 136.8334039 27.94814332 133.97265625 30.1328125 C133.97265625 30.7928125 133.97265625 31.4528125 133.97265625 32.1328125 C133.25078125 32.20886719 132.52890625 32.28492188 131.78515625 32.36328125 C128.24831419 33.33100054 126.61354153 34.92409234 123.97265625 37.4453125 C120.73780181 40.50326084 117.45019085 43.35545265 113.97265625 46.1328125 C109.03781137 51.47889445 108.84697256 55.86422317 108.85240173 62.9601593 C108.85154731 63.63413401 108.85069288 64.30810872 108.84981257 65.00250691 C108.84816979 67.25340758 108.8536594 69.50423318 108.85913086 71.75512695 C108.85941302 73.37160744 108.85925444 74.98808806 108.85868835 76.60456848 C108.85840149 80.98844135 108.86428029 85.37228684 108.87126231 89.75615335 C108.87751433 94.33923977 108.87810111 98.92232683 108.87928772 103.50541687 C108.88239558 112.18216839 108.89060163 120.85890732 108.90063721 129.53565329 C108.91181526 139.41466058 108.91731307 149.29366846 108.92233264 159.1726805 C108.93278469 179.49273153 108.95037359 199.81277122 108.97265625 220.1328125 C109.96265625 219.8028125 110.95265625 219.4728125 111.97265625 219.1328125 C111.97265625 218.4728125 111.97265625 217.8128125 111.97265625 217.1328125 C113.29265625 216.8028125 114.61265625 216.4728125 115.97265625 216.1328125 C115.97265625 215.4728125 115.97265625 214.8128125 115.97265625 214.1328125 C117.29265625 213.8028125 118.61265625 213.4728125 119.97265625 213.1328125 C119.97265625 212.4728125 119.97265625 211.8128125 119.97265625 211.1328125 C121.62265625 210.8028125 123.27265625 210.4728125 124.97265625 210.1328125 C124.97265625 209.4728125 124.97265625 208.8128125 124.97265625 208.1328125 C125.67390625 208.0296875 126.37515625 207.9265625 127.09765625 207.8203125 C130.36403272 207.03922247 133.01984145 205.71222507 135.97265625 204.1328125 C135.97265625 203.4728125 135.97265625 202.8128125 135.97265625 202.1328125 C137.02453125 202.0090625 138.07640625 201.8853125 139.16015625 201.7578125 C142.78633691 201.30744863 142.78633691 201.30744863 145.28515625 200.1953125 C149.37802865 198.57720016 153.654009 197.92107045 157.97265625 197.1328125 C157.97265625 196.4728125 157.97265625 195.8128125 157.97265625 195.1328125 C158.66230469 195.07222656 159.35195312 195.01164063 160.0625 194.94921875 C161.00222656 194.86542969 161.94195312 194.78164062 162.91015625 194.6953125 C163.82667969 194.61410156 164.74320313 194.53289062 165.6875 194.44921875 C167.40958188 194.28335831 169.13167735 194.1125855 170.84790039 193.89428711 C178.0581118 192.99374642 185.27723369 192.79677453 192.53515625 192.5703125 C193.83001953 192.52712891 195.12488281 192.48394531 196.45898438 192.43945312 C199.63012009 192.33413865 202.80132418 192.23200633 205.97265625 192.1328125 C205.97265625 192.7928125 205.97265625 193.4528125 205.97265625 194.1328125 C208.61816681 194.32667742 211.26383408 194.51319517 213.91015625 194.6953125 C214.66490234 194.75138672 215.41964844 194.80746094 216.19726562 194.86523438 C218.12011583 194.99457407 220.04655173 195.06798162 221.97265625 195.1328125 C223.78165664 193.32381211 223.11471369 190.54261399 223.1265564 188.10606384 C223.13515686 186.79522827 223.14375732 185.4843927 223.15261841 184.13383484 C223.15705414 182.66726724 223.16135245 181.20069922 223.16552734 179.73413086 C223.17342515 178.20018323 223.18169389 176.66623748 223.19030762 175.1322937 C223.21657632 170.07909938 223.23184521 165.0258966 223.24609375 159.97265625 C223.25145242 158.23406023 223.25682992 156.49546427 223.2622261 154.75686836 C223.28386654 147.52272097 223.30260157 140.28857585 223.3138485 133.05440426 C223.33007373 122.68551272 223.36320328 112.31699681 223.42024934 101.9482469 C223.45897964 94.65983926 223.47848514 87.37153192 223.48376906 80.08302408 C223.4874198 75.72979471 223.49941014 71.37696551 223.5318718 67.02384758 C223.56200511 62.92384947 223.56824579 58.82449249 223.55648804 54.7244072 C223.5562677 53.22322637 223.56453957 51.72201537 223.58214188 50.22093773 C223.67259029 42.06028419 223.57425269 35.53440525 217.97265625 29.1328125 C216.98652344 27.93205078 216.98652344 27.93205078 215.98046875 26.70703125 C215.35914063 26.08441406 214.7378125 25.46179688 214.09765625 24.8203125 C213.48148437 24.18480469 212.8653125 23.54929687 212.23046875 22.89453125 C205.02640651 17.2733685 197.9368301 17.66259088 189.09765625 17.7578125 C187.16756714 17.76651367 187.16756714 17.76651367 185.19848633 17.77539062 C175.52939008 17.90660409 166.36149921 18.85014156 156.97265625 21.1328125 Z " fill="#1E1F1D" transform="translate(48.02734375,25.8671875)"/>
<path d="M0 0 C10.53512166 3.51170722 17.57437405 7.66958097 26 15 C27.13888672 15.93779297 27.13888672 15.93779297 28.30078125 16.89453125 C28.98527344 17.46558594 29.66976562 18.03664063 30.375 18.625 C30.96023437 19.11226562 31.54546875 19.59953125 32.1484375 20.1015625 C33.06496094 21.04128906 33.06496094 21.04128906 34 22 C35.27722176 23.29805321 35.27722176 23.29805321 36.58024597 24.62232971 C40.70296407 30.52283146 39.65127699 38.04961841 39.56762695 44.94116211 C39.56621543 46.56778927 39.56701049 48.19441961 39.56983948 49.82104492 C39.571271 54.22366362 39.54192437 58.62559785 39.50696969 63.02805781 C39.47566196 67.63378707 39.47277197 72.23953292 39.46684265 76.84535217 C39.45131717 85.56113954 39.41030628 94.27661243 39.3600952 102.99226147 C39.30416139 112.91722071 39.27670509 122.84219515 39.25161803 132.76727283 C39.19938925 153.17835725 39.11147218 173.58915879 39 194 C35.15845707 192.12155403 31.74364025 189.85180839 28.21875 187.4375 C26.19554147 186.12668884 24.17712674 185.02918719 22 184 C22 183.34 22 182.68 22 182 C20.700625 181.8453125 20.700625 181.8453125 19.375 181.6875 C15.83316877 180.96601586 13.15687958 179.72876739 10 178 C10 177.34 10 176.68 10 176 C8.081875 175.7834375 8.081875 175.7834375 6.125 175.5625 C3.74307106 175.29357254 2.15547309 175.07773654 0 174 C0 116.58 0 59.16 0 0 Z " fill="#F2F4F1" transform="translate(100,52)"/>
<path d="M0 0 C0 57.09 0 114.18 0 173 C-6 176 -6 176 -10 176 C-10 176.66 -10 177.32 -10 178 C-11.26691507 178.67408308 -12.53870749 179.33900497 -13.8125 180 C-14.52019531 180.37125 -15.22789062 180.7425 -15.95703125 181.125 C-18 182 -18 182 -21 182 C-21 182.66 -21 183.32 -21 184 C-22.65 184.33 -24.3 184.66 -26 185 C-26 185.66 -26 186.32 -26 187 C-27.32 187.33 -28.64 187.66 -30 188 C-30 188.66 -30 189.32 -30 190 C-31.32 190.33 -32.64 190.66 -34 191 C-34 191.66 -34 192.32 -34 193 C-34.99 193.33 -35.98 193.66 -37 194 C-37.04672039 172.72069041 -37.08198905 151.44138928 -37.10362434 130.1620388 C-37.11393698 120.28167379 -37.12799711 110.40134065 -37.15087891 100.52099609 C-37.17081312 91.90930905 -37.18371653 83.29764509 -37.18817699 74.68593562 C-37.19078431 70.12609858 -37.19691245 65.56632757 -37.21146011 61.00651169 C-37.22504449 56.71381082 -37.2292209 52.42120314 -37.22621536 48.12848282 C-37.22676514 46.55391687 -37.2307375 44.97934777 -37.23841095 43.40480042 C-37.24838568 41.25228679 -37.2459598 39.10012333 -37.24050903 36.94760132 C-37.24235262 35.74373968 -37.24419621 34.53987804 -37.24609566 33.29953575 C-36.60442 24.69624799 -32.52067764 20.05796001 -26.265625 14.625 C-15.81610577 6 -15.81610577 6 -12 6 C-12 5.34 -12 4.68 -12 4 C-10.56570999 3.32645501 -9.12742943 2.66140299 -7.6875 2 C-6.88699219 1.62875 -6.08648437 1.2575 -5.26171875 0.875 C-3 0 -3 0 0 0 Z " fill="#F8F6F5" transform="translate(194,52)"/>
<path d="M0 0 C1.25643311 -0.01353516 2.51286621 -0.02707031 3.80737305 -0.04101562 C11.94441525 -0.00169833 17.21383414 0.37056869 23.640625 5.64453125 C24.46046875 6.48371094 25.2803125 7.32289062 26.125 8.1875 C26.95515625 9.01894531 27.7853125 9.85039063 28.640625 10.70703125 C32.75072553 15.61472122 34.25062849 19.66521673 34.24249268 26.05012512 C34.24739594 27.01843318 34.24739594 27.01843318 34.25239825 28.00630301 C34.25964336 30.15524351 34.24555732 32.30349439 34.23144531 34.45239258 C34.23223666 35.99843461 34.23433537 37.54447644 34.23764038 39.09051514 C34.24276397 43.27820539 34.22926225 47.46564894 34.21211338 51.65329957 C34.19706165 56.03437839 34.19825113 60.41545422 34.19744873 64.79655457 C34.1937596 72.14785977 34.178806 79.4990714 34.15625 86.8503418 C34.12732174 96.29789555 34.1170213 105.74537419 34.1125679 115.19296741 C34.10859454 123.30745611 34.09609598 131.42192837 34.08222103 139.53640532 C34.07811656 142.14990371 34.07519385 144.76340152 34.07242584 147.37690163 C34.06754611 151.47349929 34.05736532 155.57005098 34.04298782 159.66662598 C34.03845186 161.17394788 34.03562311 162.68127598 34.03458023 164.18860435 C34.03284406 166.23734313 34.02434671 168.28607293 34.01544189 170.33479309 C34.01246723 171.48385037 34.00949257 172.63290766 34.00642776 173.81678486 C33.875 176.375 33.875 176.375 32.875 177.375 C30.17391496 177.284084 27.50569689 177.13759234 24.8125 176.9375 C24.05388672 176.88529297 23.29527344 176.83308594 22.51367188 176.77929688 C20.63378278 176.64924165 18.75434315 176.51271962 16.875 176.375 C16.875 175.715 16.875 175.055 16.875 174.375 C-2.87890979 174.66967183 -2.87890979 174.66967183 -22.4609375 176.97265625 C-25.38229657 177.41385857 -28.17490752 177.44026753 -31.125 177.375 C-31.125 178.035 -31.125 178.695 -31.125 179.375 C-32.775 179.375 -34.425 179.375 -36.125 179.375 C-32.7283492 175.50069518 -29.09003226 175.01683924 -24.125 174.375 C-20.45051923 174.22839909 -16.79974447 174.25136374 -13.125 174.375 C-13.125 173.715 -13.125 173.055 -13.125 172.375 C-9.37507297 172.31481599 -5.62527496 172.28070401 -1.875 172.25 C-0.85019531 172.23324219 0.17460937 172.21648437 1.23046875 172.19921875 C8.34072991 172.15612626 15.27161307 172.64416561 22.33886719 173.38720703 C23.25928802 173.48171646 24.17970886 173.57622589 25.12802124 173.67359924 C27.37728347 173.90491282 29.62625009 174.13876655 31.875 174.375 C31.81452181 154.47799498 31.73706202 134.58112556 31.63928509 114.684268 C31.594285 105.44618049 31.55488014 96.20813189 31.52856445 86.9699707 C31.5056184 78.91967635 31.47225862 70.86950472 31.42629844 62.81930763 C31.40232024 58.55524189 31.38362169 54.29129803 31.37738609 50.02716637 C31.3713559 46.01588309 31.35143161 42.00491186 31.32072449 37.9937439 C31.31191095 36.51953609 31.30822851 35.04528756 31.30999184 33.57105446 C31.31163647 31.56207902 31.29323021 29.55311667 31.27372742 27.54423523 C31.26911845 26.418726 31.26450949 25.29321676 31.25976086 24.13360119 C30.82177405 20.99338852 30.19306967 20.38490411 27.875 18.375 C27.20833333 16.04166667 26.54166667 13.70833333 25.875 11.375 C23.88511587 8.66152164 22.15952224 7.94129694 18.875 7.375 C18.875 6.715 18.875 6.055 18.875 5.375 C18.235625 5.230625 17.59625 5.08625 16.9375 4.9375 C14.875 4.375 14.875 4.375 13.875 3.375 C9.36026163 3.11850527 4.83364426 3.18975719 0.3125 3.1875 C-0.95142578 3.17525391 -2.21535156 3.16300781 -3.51757812 3.15039062 C-10.1205574 3.14003572 -15.80871744 3.46592134 -22.125 5.375 C-25.1103224 5.90638001 -28.0993146 6.3617426 -31.09765625 6.8125 C-34.48946714 7.44272035 -37.80787354 8.42724958 -41.125 9.375 C-41.455 66.135 -41.785 122.895 -42.125 181.375 C-42.455 181.375 -42.785 181.375 -43.125 181.375 C-43.125 124.285 -43.125 67.195 -43.125 8.375 C-44.115 8.045 -45.105 7.715 -46.125 7.375 C-44.5426994 7.03679834 -42.95910625 6.70464061 -41.375 6.375 C-40.49328125 6.189375 -39.6115625 6.00375 -38.703125 5.8125 C-36.125 5.375 -36.125 5.375 -32.125 5.375 C-32.125 4.715 -32.125 4.055 -32.125 3.375 C-21.43248161 0.77537179 -10.99986093 0.04958925 0 0 Z " fill="#C85953" transform="translate(237.125,43.625)"/>
<path d="M0 0 C7.69982017 7.69982017 9.45130406 16.31187903 9.51989746 26.98391724 C9.50893525 28.39740298 9.49756945 29.81088565 9.48583984 31.22436523 C9.4879896 32.73819811 9.49187307 34.25202936 9.49734497 35.76585388 C9.50697678 39.84814284 9.49181714 43.92998943 9.47143888 48.01222491 C9.4537878 52.29224767 9.45739439 56.57225843 9.4581604 60.85231018 C9.45629231 68.03011423 9.43898761 75.20774828 9.41162109 82.38549805 C9.38009162 90.68585034 9.36962805 98.98601721 9.3710922 107.28642505 C9.37244184 116.13248942 9.35857632 124.9784823 9.34019899 133.82452512 C9.33593523 136.37244961 9.33451654 138.92036259 9.33372116 141.46829033 C9.33171517 145.46485893 9.31952941 149.46127138 9.29938889 153.45778847 C9.29353948 154.9255668 9.29108804 156.39336311 9.29224396 157.86115265 C9.29322302 159.86081603 9.28069456 161.86047257 9.26742554 163.86009216 C9.26407385 164.97998755 9.26072216 166.09988295 9.25726891 167.25371456 C9 170 9 170 7 173 C4.93359375 173.328125 4.93359375 173.328125 2.4375 173.25 C1.63183594 173.23453125 0.82617188 173.2190625 -0.00390625 173.203125 C-2.25743081 173.05034367 -4.5043156 172.79429505 -6.7421875 172.48828125 C-14.30487714 171.61672402 -21.9609803 171.89577234 -29.5625 171.9375 C-31.15950381 171.94252457 -32.75650914 171.94708579 -34.35351562 171.95117188 C-38.23571533 171.96210272 -42.11784051 171.97931467 -46 172 C-46 171.67 -46 171.34 -46 171 C-44.2984375 170.7834375 -44.2984375 170.7834375 -42.5625 170.5625 C-39.19222799 170.38828522 -39.19222799 170.38828522 -38 169 C-35.92737924 168.91232888 -33.85179706 168.89304127 -31.77734375 168.90234375 C-30.51728516 168.90556641 -29.25722656 168.90878906 -27.95898438 168.91210938 C-26.61848891 168.92046597 -25.27799412 168.92893093 -23.9375 168.9375 C-22.59310058 168.9425134 -21.2486994 168.94707658 -19.90429688 168.95117188 C-16.60282059 168.96300512 -13.30143197 168.97949029 -10 169 C-10 169.66 -10 170.32 -10 171 C-4.72 171 0.56 171 6 171 C6.11581899 150.66796392 6.20501085 130.33602122 6.25906086 110.00372314 C6.28482598 100.56275187 6.3199441 91.12198951 6.37719727 81.68115234 C6.42708411 73.45106076 6.45930332 65.22112051 6.47044247 56.99088192 C6.47695232 52.63426412 6.49221672 48.2780792 6.52865028 43.92160034 C6.56269346 39.81753569 6.57303636 35.71408052 6.56553841 31.60988808 C6.56690926 30.10708614 6.57679261 28.60426294 6.59602737 27.10158348 C6.69541933 18.93324446 6.60348738 12.41209124 1 6 C0.12214844 4.90751953 0.12214844 4.90751953 -0.7734375 3.79296875 C-1.30195313 3.26316406 -1.83046875 2.73335937 -2.375 2.1875 C-3.16003906 1.37345703 -3.16003906 1.37345703 -3.9609375 0.54296875 C-11.21989507 -4.9499206 -18.44714218 -4.42375958 -27.25 -4.3125 C-28.50941406 -4.31572266 -29.76882812 -4.31894531 -31.06640625 -4.32226562 C-37.80582167 -4.28377468 -44.1569397 -3.85410108 -50.75219727 -2.4387207 C-53.52685637 -1.89716945 -56.18185261 -1.84766771 -59 -2 C-59 -1.34 -59 -0.68 -59 0 C-60.98 0.33 -62.96 0.66 -65 1 C-62.72736184 -2.62201706 -61.47292091 -3.85772295 -57.3125 -5.109375 C-55.87864434 -5.34615391 -54.44061883 -5.55862687 -53 -5.75 C-51.85833374 -5.92366089 -51.85833374 -5.92366089 -50.69360352 -6.10083008 C-48.46510084 -6.42872389 -46.23524741 -6.72221664 -44 -7 C-42.93652344 -7.13277344 -41.87304688 -7.26554687 -40.77734375 -7.40234375 C-26.29561113 -8.85649297 -11.59741263 -10.17316898 0 0 Z " fill="#290C0B" transform="translate(264,49)"/>
<path d="M0 0 C1.06428223 0.1652417 2.12856445 0.3304834 3.22509766 0.50073242 C8.09865842 1.34093335 11.40197947 1.93161118 15.25 5.1875 C14.92 5.8475 14.59 6.5075 14.25 7.1875 C13.3425 6.89875 12.435 6.61 11.5 6.3125 C7.25784022 5.09555719 2.96224513 4.42304683 -1.39453125 3.75 C-3.26637608 3.43620995 -5.13611753 3.10182241 -6.98901367 2.69067383 C-13.20017397 1.32271424 -19.08469946 0.85189891 -25.4375 0.875 C-26.78424805 0.85083008 -26.78424805 0.85083008 -28.15820312 0.82617188 C-35.14661171 0.82105216 -40.05143669 1.80272312 -45.4375 6.5625 C-51.03297004 12.91411464 -52.85986931 16.03314418 -52.90821838 24.51495361 C-52.9180072 25.81623199 -52.92779602 27.11751038 -52.93788147 28.45822144 C-52.94378531 29.89825403 -52.94959578 31.338287 -52.95532227 32.77832031 C-52.96490343 34.2961351 -52.97491365 35.81394724 -52.98532104 37.33175659 C-53.01235034 41.45120606 -53.0333706 45.57066697 -53.05332303 49.69015598 C-53.07519476 53.99566797 -53.10257765 58.3011448 -53.12937927 62.60662842 C-53.17929009 70.75923164 -53.22423491 78.91185439 -53.26740164 87.0644958 C-53.31678776 96.3461764 -53.3717008 105.62782171 -53.42708123 114.90946817 C-53.54087656 134.00211269 -53.64772094 153.0947905 -53.75 172.1875 C-52.87772766 172.04620667 -52.00545532 171.90491333 -51.10675049 171.75933838 C-49.95164978 171.57611023 -48.79654907 171.39288208 -47.60644531 171.20410156 C-46.46604797 171.02155823 -45.32565063 170.83901489 -44.1506958 170.65093994 C-39.25204341 169.98336151 -34.43658902 169.8891063 -29.5 169.9375 C-28.52216553 169.94136719 -27.54433105 169.94523438 -26.53686523 169.94921875 C-17.84665523 170.05126476 -9.33714088 170.89654728 -0.75 172.1875 C-0.75 172.5175 -0.75 172.8475 -0.75 173.1875 C-1.91869629 173.18226318 -3.08739258 173.17702637 -4.29150391 173.17163086 C-8.69367688 173.15331252 -13.09584659 173.14197156 -17.49804688 173.13256836 C-19.39095631 173.12758871 -21.28386201 173.12080257 -23.17675781 173.11206055 C-25.92253554 173.09971181 -28.66826174 173.09420798 -31.4140625 173.08984375 C-32.23862946 173.08468246 -33.06319641 173.07952118 -33.91275024 173.07420349 C-38.99258151 173.07373547 -44.01780264 173.3199116 -49.08456421 173.69459534 C-50.3356365 173.78638345 -51.58670879 173.87817156 -52.87569237 173.97274113 C-53.82421389 174.04361156 -54.7727354 174.11448198 -55.75 174.1875 C-55.86687785 153.72508953 -55.95501 133.26274694 -56.00906086 112.80007172 C-56.03482635 103.29856701 -56.0699452 93.79726989 -56.12719727 84.29589844 C-56.17708296 76.01306915 -56.20930305 67.73039022 -56.22044247 59.44741488 C-56.22695251 55.06285262 -56.24221817 50.67872047 -56.27865028 46.29429626 C-56.31269161 42.16396781 -56.32303672 38.03424494 -56.31553841 33.90378952 C-56.31690934 32.39131245 -56.32679377 30.87881428 -56.34602737 29.36645889 C-56.47041722 19.0773349 -55.21550735 13.09955809 -48.25 5.4375 C-35.24678143 -6.26539671 -16.34816799 -2.58856003 0 0 Z " fill="#33CD6F" transform="translate(81.75,45.8125)"/>
<path d="M0 0 C1.47745228 1.10967731 1.47745228 1.10967731 3 3 C3.36914349 5.78983593 3.36914349 5.78983593 3.36076355 9.24516296 C3.36488754 10.55348083 3.36901154 11.86179871 3.3732605 13.20976257 C3.36264297 14.66287437 3.35173854 16.11598409 3.34057617 17.5690918 C3.33973011 19.09660831 3.34020463 20.62412604 3.34190369 22.15164185 C3.34276589 26.30226474 3.32510381 30.45262856 3.30418181 34.60319114 C3.28545248 38.93937101 3.28366753 43.27555655 3.28010559 47.61177063 C3.2707741 55.82469094 3.24614541 64.03749172 3.21605712 72.25035936 C3.18254743 81.59969006 3.16603574 90.94902641 3.15097082 100.29840219 C3.1195968 119.53233594 3.06681488 138.76615837 3 158 C2.34 158 1.68 158 1 158 C-0.06971992 154.51480695 -0.12321442 151.30730648 -0.12025452 147.67254639 C-0.12162918 146.37126801 -0.12300385 145.06998962 -0.12442017 143.72927856 C-0.12088122 142.28924537 -0.11724642 140.84921242 -0.11352539 139.40917969 C-0.11324329 137.89136761 -0.1134017 136.3735554 -0.1139679 134.85574341 C-0.11425497 130.736265 -0.10837267 126.61681567 -0.10139394 122.49734402 C-0.09514553 118.1918547 -0.09455542 113.88636473 -0.09336853 109.58087158 C-0.09025961 101.42824269 -0.08205212 93.27562719 -0.07201904 85.1230042 C-0.06084429 75.84134864 -0.05534402 66.55969244 -0.05032361 57.27803183 C-0.03986916 38.18534695 -0.02227819 19.09267455 0 0 Z " fill="#110F0F" transform="translate(285,65)"/>
<path d="M0 0 C0 0.66 0 1.32 0 2 C-1.52157311 1.71221756 -3.04222053 1.41953999 -4.5625 1.125 C-5.40941406 0.96257813 -6.25632812 0.80015625 -7.12890625 0.6328125 C-9.2082096 0.17451707 -11.26889037 -0.37109058 -13.3125 -0.96875 C-24.90254514 -4.21003381 -36.74586488 -5.3032523 -48.75 -5.4375 C-50.26678345 -5.47061279 -50.26678345 -5.47061279 -51.81420898 -5.50439453 C-59.65701128 -5.4821008 -63.82084289 -3.81788926 -69.75 1.4375 C-73.6384281 5.86598756 -75.77976144 10.60799206 -78 16 C-78.66 16 -79.32 16 -80 16 C-80 66.82 -80 117.64 -80 170 C-80.33 170 -80.66 170 -81 170 C-81.11695223 149.83289965 -81.20504635 129.6658684 -81.25906086 109.49849892 C-81.28481063 100.13381214 -81.31989924 90.76933643 -81.37719727 81.40478516 C-81.42713129 73.23986394 -81.45931446 65.07509563 -81.47044247 56.91002595 C-81.47694437 52.58911284 -81.49215771 48.26863707 -81.52865028 43.94786453 C-81.5627682 39.87498196 -81.57302145 35.80271391 -81.56553841 31.729702 C-81.56690595 30.24064028 -81.57674444 28.7515565 -81.59602737 27.26261902 C-81.72743152 16.58610396 -79.77280017 9.60530312 -73.8125 0.75 C-57.06165007 -15.62860882 -19.26596294 -10.72980609 0 0 Z " fill="#021205" transform="translate(104,50)"/>
<path d="M0 0 C2.31 0.33 4.62 0.66 7 1 C6.01 1.495 6.01 1.495 5 2 C5 59.09 5 116.18 5 175 C3.68 174.67 2.36 174.34 1 174 C1.66 174 2.32 174 3 174 C2.67 116.91 2.34 59.82 2 1 C1.34 0.67 0.68 0.34 0 0 Z " fill="#2EA84D" transform="translate(95,50)"/>
<path d="M0 0 C1.4362375 2.87247499 0.54189865 4.85852096 0 8 C-0.08618905 10.28928669 -0.12203041 12.58076569 -0.12025452 14.87167358 C-0.12110894 15.53833562 -0.12196337 16.20499765 -0.12284368 16.89186156 C-0.12448275 19.11201761 -0.11900304 21.33209707 -0.11352539 23.55224609 C-0.11324315 25.1491699 -0.11340197 26.74609384 -0.1139679 28.34301758 C-0.11425444 32.66898201 -0.10838074 36.99491862 -0.10139394 41.3208766 C-0.09513667 45.84523343 -0.09455472 50.36959092 -0.09336853 54.89395142 C-0.09026221 63.45733863 -0.08205825 72.02071306 -0.07201904 80.58409464 C-0.06083619 90.3349534 -0.05534198 100.08581278 -0.05032361 109.83667636 C-0.03987506 129.89112471 -0.02228915 149.94556155 0 170 C-0.33 169.34 -0.66 168.68 -1 168 C-1.66 168 -2.32 168 -3 168 C-3 113.88 -3 59.76 -3 4 C-2.34 4 -1.68 4 -1 4 C-0.67 2.68 -0.34 1.36 0 0 Z " fill="#111010" transform="translate(11,57)"/>
<path d="M0 0 C1.06428223 0.1652417 2.12856445 0.3304834 3.22509766 0.50073242 C8.09865842 1.34093335 11.40197947 1.93161118 15.25 5.1875 C14.92 5.8475 14.59 6.5075 14.25 7.1875 C13.3425 6.89875 12.435 6.61 11.5 6.3125 C7.25784022 5.09555719 2.96224513 4.42304683 -1.39453125 3.75 C-3.26637608 3.43620995 -5.13611753 3.10182241 -6.98901367 2.69067383 C-13.20017397 1.32271424 -19.08469946 0.85189891 -25.4375 0.875 C-26.78424805 0.85083008 -26.78424805 0.85083008 -28.15820312 0.82617188 C-35.14661171 0.82105216 -40.05143669 1.80272312 -45.4375 6.5625 C-48.71982392 10.28838121 -51.58770285 13.70845589 -53.75 18.1875 C-54.41 18.8475 -55.07 19.5075 -55.75 20.1875 C-54.73551694 13.28901516 -51.48751132 7.22369341 -46.04296875 2.80078125 C-33.78849549 -6.20303173 -14.15546309 -2.24136833 0 0 Z " fill="#3AC26F" transform="translate(81.75,45.8125)"/>
<path d="M0 0 C1.25643311 -0.01353516 2.51286621 -0.02707031 3.80737305 -0.04101562 C12.05391333 -0.00116925 17.34963862 0.32927962 23.74609375 5.85546875 C24.59300781 6.74878906 25.43992187 7.64210938 26.3125 8.5625 C27.17746094 9.46355469 28.04242188 10.36460938 28.93359375 11.29296875 C29.57425781 11.98003906 30.21492188 12.66710938 30.875 13.375 C30.215 15.025 29.555 16.675 28.875 18.375 C28.545 18.375 28.215 18.375 27.875 18.375 C27.4728125 16.7353125 27.4728125 16.7353125 27.0625 15.0625 C25.82511667 11.02143713 25.82511667 11.02143713 22.875 8.375 C20.77167109 7.66052357 20.77167109 7.66052357 18.875 7.375 C18.875 6.715 18.875 6.055 18.875 5.375 C18.235625 5.230625 17.59625 5.08625 16.9375 4.9375 C14.875 4.375 14.875 4.375 13.875 3.375 C9.36026163 3.11850527 4.83364426 3.18975719 0.3125 3.1875 C-0.95142578 3.17525391 -2.21535156 3.16300781 -3.51757812 3.15039062 C-10.11990819 3.14003674 -15.80961242 3.4640447 -22.125 5.375 C-24.12051782 5.73419321 -26.12048879 6.06996569 -28.125 6.375 C-31.71181962 6.93657277 -35.14041752 7.61083047 -38.625 8.625 C-42.40623511 9.43526467 -42.98202835 9.22218509 -46.125 7.375 C-44.5426994 7.03679834 -42.95910625 6.70464061 -41.375 6.375 C-40.49328125 6.189375 -39.6115625 6.00375 -38.703125 5.8125 C-36.125 5.375 -36.125 5.375 -32.125 5.375 C-32.125 4.715 -32.125 4.055 -32.125 3.375 C-21.43248161 0.77537179 -10.99986093 0.04958925 0 0 Z " fill="#D34D43" transform="translate(237.125,43.625)"/>
<path d="M0 0 C0.77730469 0.10924805 1.55460937 0.21849609 2.35546875 0.33105469 C7.25597709 1.1442488 11.42571092 2.67033719 15.89233398 4.83886719 C17.89559641 5.73133172 19.79880233 6.28494817 21.9375 6.75 C21.9375 7.41 21.9375 8.07 21.9375 8.75 C22.9275 9.08 23.9175 9.41 24.9375 9.75 C20.0912626 9.37721251 15.96159266 8.50109916 11.375 6.875 C-2.55025915 2.08367218 -15.90691114 1.24985008 -30.5 1.0625 C-32.31057004 1.02923238 -34.1211179 0.99473449 -35.93164062 0.95898438 C-40.30846856 0.87518295 -44.68525568 0.80787722 -49.0625 0.75 C-49.0625 0.42 -49.0625 0.09 -49.0625 -0.25 C-32.78679862 -1.81357274 -16.22333276 -2.35760856 0 0 Z " fill="#0A2611" transform="translate(84.0625,220.25)"/>
<path d="M0 0 C0.99894287 -0.00467285 1.99788574 -0.0093457 3.02709961 -0.01416016 C7.83767146 -0.00363994 12.39662792 0.11521206 17.125 1.125 C16.795 1.785 16.465 2.445 16.125 3.125 C15.17359131 3.15005615 14.22218262 3.1751123 13.24194336 3.20092773 C9.63541265 3.29671395 6.02900024 3.39648089 2.42260742 3.49731445 C0.87608653 3.54002895 -0.67046269 3.58173271 -2.21704102 3.62231445 C-12.45913252 3.89193077 -22.65713324 4.35797767 -32.875 5.125 C-23.33998025 -1.23167983 -11.01158465 0.03629338 0 0 Z " fill="#0E0D0D" transform="translate(239.875,232.875)"/>
<path d="M0 0 C3.97915085 -0.02934144 7.95827337 -0.04691265 11.9375 -0.0625 C13.05447266 -0.07087891 14.17144531 -0.07925781 15.32226562 -0.08789062 C21.63992667 -0.10641749 27.73763227 0.15660583 34 1 C34 1.66 34 2.32 34 3 C35.5778125 2.9690625 35.5778125 2.9690625 37.1875 2.9375 C40.32704904 2.98896802 42.96883396 3.26517187 46 4 C46 4.33 46 4.66 46 5 C40.72 4.67 35.44 4.34 30 4 C30 3.34 30 2.68 30 2 C10.24609021 2.29467183 10.24609021 2.29467183 -9.3359375 4.59765625 C-12.25729657 5.03885857 -15.04990752 5.06526753 -18 5 C-18 5.66 -18 6.32 -18 7 C-19.65 7 -21.3 7 -23 7 C-19.6033492 3.12569518 -15.96503226 2.64183924 -11 2 C-7.32551923 1.85339909 -3.67474447 1.87636374 0 2 C0 1.34 0 0.68 0 0 Z " fill="#DB4F44" transform="translate(224,216)"/>
<path d="M0 0 C-0.78375 0.2475 -1.5675 0.495 -2.375 0.75 C-5.11976952 1.72681333 -5.11976952 1.72681333 -6 4 C-7 6 -7 6 -9.3125 7.1875 C-11.86600874 7.95949101 -14.37176476 8.54944539 -17 9 C-17.66 11.31 -18.32 13.62 -19 16 C-19.33 15.01 -19.66 14.02 -20 13 C-23.54518884 14.39759905 -23.54518884 14.39759905 -27 16 C-27 15.01 -27 14.02 -27 13 C-27.66 12.67 -28.32 12.34 -29 12 C-23.375 8 -23.375 8 -20 8 C-20 7.34 -20 6.68 -20 6 C-18.58774074 5.32404685 -17.16997095 4.65959941 -15.75 4 C-14.56664062 3.443125 -14.56664062 3.443125 -13.359375 2.875 C-11 2 -11 2 -7 2 C-7 1.34 -7 0.68 -7 0 C-2.25 -1.125 -2.25 -1.125 0 0 Z " fill="#272626" transform="translate(196,33)"/>
<path d="M0 0 C0.91015869 0.12600586 1.82031738 0.25201172 2.75805664 0.38183594 C9.17684771 1.36434771 9.17684771 1.36434771 11.4375 3.625 C10.69846436 3.55788818 9.95942871 3.49077637 9.19799805 3.42163086 C2.80341313 2.88119509 -3.56672899 2.52245069 -9.98046875 2.37890625 C-10.69679474 2.36225922 -11.41312073 2.34561218 -12.15115356 2.32846069 C-15.10954609 2.26194795 -18.06790885 2.19927659 -21.02661133 2.14819336 C-23.21984554 2.10870332 -25.41253362 2.05723677 -27.60546875 2.00390625 C-29.53942505 1.96632202 -29.53942505 1.96632202 -31.51245117 1.92797852 C-34.5625 1.625 -34.5625 1.625 -36.5625 -0.375 C-24.55987601 -2.7336773 -12.02267599 -1.69067258 0 0 Z " fill="#0C0C0B" transform="translate(75.5625,234.375)"/>
<path d="M0 0 C0.33 0 0.66 0 1 0 C1 15.51 1 31.02 1 47 C3.475 46.505 3.475 46.505 6 46 C4.75 47.5 4.75 47.5 3 49 C1.68 49 0.36 49 -1 49 C-1.0252689 42.18238106 -1.04283244 35.36477411 -1.05493164 28.54711914 C-1.05997333 26.22582549 -1.06680651 23.90453503 -1.07543945 21.58325195 C-1.08751225 18.25471205 -1.09322979 14.92621398 -1.09765625 11.59765625 C-1.10281754 10.55287613 -1.10797882 9.50809601 -1.11329651 8.43165588 C-1.11337204 7.47073532 -1.11344757 6.50981476 -1.11352539 5.51977539 C-1.115746 4.66928116 -1.11796661 3.81878693 -1.12025452 2.94252014 C-1 1 -1 1 0 0 Z " fill="#F74337" transform="translate(198,174)"/>
<path d="M0 0 C3.92858919 -0.05012431 7.85704984 -0.08605502 11.78588867 -0.10986328 C13.76552896 -0.12464917 15.74508063 -0.15008592 17.72460938 -0.17578125 C25.40607561 -0.21467475 32.51035384 0.29763102 40 2 C41.24652344 2.2578125 42.49304688 2.515625 43.77734375 2.78125 C44.82019531 3.0184375 45.86304688 3.255625 46.9375 3.5 C47.99839844 3.7371875 49.05929688 3.974375 50.15234375 4.21875 C52.6696201 4.90936079 54.73091941 5.73150193 57 7 C57 7.66 57 8.32 57 9 C55.47842689 8.71221756 53.95777947 8.41953999 52.4375 8.125 C51.59058594 7.96257813 50.74367187 7.80015625 49.87109375 7.6328125 C47.79516327 7.17526048 45.73828865 6.62820577 43.69921875 6.02734375 C39.60885005 4.89137018 35.56282305 4.10672233 31.375 3.4375 C30.56828857 3.30819092 29.76157715 3.17888184 28.93041992 3.0456543 C19.33232546 1.61021064 9.6894885 1.27959718 0 1 C0 0.67 0 0.34 0 0 Z " fill="#041C06" transform="translate(47,43)"/>
<path d="M0 0 C1.42590454 -0.00314209 1.42590454 -0.00314209 2.88061523 -0.00634766 C3.88036377 -0.0016748 4.8801123 0.00299805 5.91015625 0.0078125 C7.45135132 0.01288818 7.45135132 0.01288818 9.02368164 0.01806641 C19.55611029 0.08928182 29.77514303 0.27035265 39.97265625 3.1328125 C41.27203125 3.2978125 42.57140625 3.4628125 43.91015625 3.6328125 C45.42609375 3.8803125 45.42609375 3.8803125 46.97265625 4.1328125 C47.46765625 5.1228125 47.46765625 5.1228125 47.97265625 6.1328125 C47.05484375 6.060625 46.13703125 5.9884375 45.19140625 5.9140625 C38.76728754 5.42820478 32.41522407 5.00396114 25.97265625 5.1328125 C25.97265625 4.4728125 25.97265625 3.8128125 25.97265625 3.1328125 C18.42342811 2.10740932 11.02174782 2.01555285 3.41015625 2.0703125 C1.61094727 2.07708008 1.61094727 2.07708008 -0.22460938 2.08398438 C-3.15890734 2.09567481 -6.09309824 2.11206112 -9.02734375 2.1328125 C-8.69734375 3.1228125 -8.36734375 4.1128125 -8.02734375 5.1328125 C-10.66734375 5.1328125 -13.30734375 5.1328125 -16.02734375 5.1328125 C-15.36734375 4.4728125 -14.70734375 3.8128125 -14.02734375 3.1328125 C-12.70734375 3.1328125 -11.38734375 3.1328125 -10.02734375 3.1328125 C-10.02734375 2.4728125 -10.02734375 1.8128125 -10.02734375 1.1328125 C-6.62690873 0.36787604 -3.48302759 0.00463125 0 0 Z " fill="#4C4B4B" transform="translate(48.02734375,25.8671875)"/>
<path d="M0 0 C0.28875 0.639375 0.5775 1.27875 0.875 1.9375 C1.82823451 4.15206079 1.82823451 4.15206079 4 5 C3.34 6.32 2.68 7.64 2 9 C7.50016964 10.30267176 12.47032059 9.71033431 18 9 C17.67 9.66 17.34 10.32 17 11 C10.85221993 13.04926002 2.85037531 13.0884772 -3.25 10.75 C-6 9 -6 9 -6.9375 6.8125 C-6.958125 6.214375 -6.97875 5.61625 -7 5 C-5.68 5.33 -4.36 5.66 -3 6 C-3.33 5.34 -3.66 4.68 -4 4 C-3.01 3.34 -2.02 2.68 -1 2 C-0.67 1.34 -0.34 0.68 0 0 Z " fill="#1A1917" transform="translate(20,225)"/>
<path d="M0 0 C1.16781006 0.00523682 2.33562012 0.01047363 3.53881836 0.01586914 C4.79887695 0.0190918 6.05893555 0.02231445 7.35717773 0.02563477 C8.6976732 0.03399136 10.03816799 0.04245632 11.37866211 0.05102539 C12.72306153 0.05603879 14.06746271 0.06060197 15.41186523 0.06469727 C18.71334151 0.07653051 22.01473014 0.09301568 25.31616211 0.11352539 C25.31616211 0.77352539 25.31616211 1.43352539 25.31616211 2.11352539 C26.01483398 2.09032227 26.71350586 2.06711914 27.43334961 2.04321289 C28.7984668 2.01614258 28.7984668 2.01614258 30.19116211 1.98852539 C31.54854492 1.9537207 31.54854492 1.9537207 32.93334961 1.91821289 C35.31616211 2.11352539 35.31616211 2.11352539 37.31616211 4.11352539 C36.51291504 4.04206299 35.70966797 3.97060059 34.88208008 3.89697266 C25.04767005 3.09983267 15.30097099 2.99537365 5.44116211 3.05102539 C3.86694481 3.05605743 2.29272592 3.06061728 0.71850586 3.06469727 C-3.08231557 3.07555179 -6.88305845 3.09271937 -10.68383789 3.11352539 C-10.68383789 2.78352539 -10.68383789 2.45352539 -10.68383789 2.11352539 C-9.54946289 1.96915039 -8.41508789 1.82477539 -7.24633789 1.67602539 C-3.8582847 1.14106962 -3.19184689 0.13501399 0 0 Z " fill="#42130F" transform="translate(228.683837890625,217.886474609375)"/>
<path d="M0 0 C1.1446875 -0.00386719 2.289375 -0.00773437 3.46875 -0.01171875 C5.13164062 -0.00978516 5.13164062 -0.00978516 6.828125 -0.0078125 C7.82231445 -0.00668457 8.81650391 -0.00555664 9.84082031 -0.00439453 C12.87885462 0.1307312 15.76314633 0.56655929 18.75 1.125 C18.75 1.455 18.75 1.785 18.75 2.125 C16.11 2.455 13.47 2.785 10.75 3.125 C10.75 2.795 10.75 2.465 10.75 2.125 C5.47 2.125 0.19 2.125 -5.25 2.125 C-2.775 2.62 -2.775 2.62 -0.25 3.125 C-3.45380017 5.26086678 -4.26939967 5.35632175 -7.9375 5.25 C-8.74574219 5.23195313 -9.55398437 5.21390625 -10.38671875 5.1953125 C-11.30904297 5.16050781 -11.30904297 5.16050781 -12.25 5.125 C-11.92 4.465 -11.59 3.805 -11.25 3.125 C-15.87 3.125 -20.49 3.125 -25.25 3.125 C-19.9410375 -2.1839625 -7.03680951 -0.02409866 0 0 Z " fill="#3F3E3D" transform="translate(237.25,25.875)"/>
<path d="M0 0 C1.53515035 0.01005911 3.07030715 0.01917973 4.60546875 0.02734375 C8.32044927 0.04910381 12.03518161 0.08346866 15.75 0.125 C15.75 0.455 15.75 0.785 15.75 1.125 C15.01998779 1.14481934 14.28997559 1.16463867 13.5378418 1.18505859 C10.17075166 1.28140565 6.80419141 1.39063266 3.4375 1.5 C2.28958984 1.5309375 1.14167969 1.561875 -0.04101562 1.59375 C-6.49519437 1.81315551 -12.63930562 2.37586739 -18.96484375 3.69726562 C-21.75235325 4.21903022 -24.42205884 4.27786168 -27.25 4.125 C-27.25 4.785 -27.25 5.445 -27.25 6.125 C-29.23 6.455 -31.21 6.785 -33.25 7.125 C-32 4.75 -32 4.75 -29.25 2.125 C-19.8615974 -0.7051504 -9.69727956 -0.11175382 0 0 Z " fill="#531714" transform="translate(232.25,42.875)"/>
<path d="M0 0 C0 0.33 0 0.66 0 1 C-0.71027344 1.06058594 -1.42054688 1.12117188 -2.15234375 1.18359375 C-3.07144531 1.26738281 -3.99054688 1.35117187 -4.9375 1.4375 C-5.85402344 1.51871094 -6.77054688 1.59992187 -7.71484375 1.68359375 C-9.96159732 1.76044976 -9.96159732 1.76044976 -11 3 C-14.27420355 3.44940049 -17.54747604 3.81820723 -20.83398438 4.16210938 C-25.1349445 4.65058407 -28.90491992 5.5200654 -33 7 C-34.99369031 7.36920191 -36.99279077 7.71325582 -39 8 C-38.67 7.34 -38.34 6.68 -38 6 C-35.6859378 5.26924352 -33.35171131 4.59861742 -31 4 C-31 3.34 -31 2.68 -31 2 C-20.60886221 0.69381882 -10.48925548 -0.33358056 0 0 Z " fill="#191918" transform="translate(229,28)"/>
<path d="M0 0 C0 0.66 0 1.32 0 2 C3.63 2 7.26 2 11 2 C11 2.66 11 3.32 11 4 C11.66 4.33 12.32 4.66 13 5 C12.01 5 11.02 5 10 5 C10 5.66 10 6.32 10 7 C4.06 7 -1.88 7 -8 7 C-8.33 6.34 -8.66 5.68 -9 5 C-7.95199219 5.01160156 -6.90398438 5.02320313 -5.82421875 5.03515625 C-4.44531428 5.04453655 -3.06640789 5.0536365 -1.6875 5.0625 C-0.99720703 5.07087891 -0.30691406 5.07925781 0.40429688 5.08789062 C3.5483025 5.10307906 5.99420019 5.00193327 9 4 C7.80503906 4.14308594 7.80503906 4.14308594 6.5859375 4.2890625 C-3.93848858 5.39015817 -3.93848858 5.39015817 -9 3 C-3 0 -3 0 0 0 Z " fill="#444341" transform="translate(28,231)"/>
<path d="M0 0 C0.66837891 0.07476562 1.33675781 0.14953125 2.02539062 0.2265625 C6.00106006 0.7466699 8.60651941 1.49814083 11.5625 4.25 C11.2325 4.91 10.9025 5.57 10.5625 6.25 C9.20125 5.816875 9.20125 5.816875 7.8125 5.375 C3.32752984 4.06726743 -1.24432739 3.46158762 -5.86328125 2.8125 C-8.4375 2.25 -8.4375 2.25 -10.4375 0.25 C-6.74671866 -0.98026045 -3.76587287 -0.50548629 0 0 Z " fill="#2AAD5E" transform="translate(85.4375,46.75)"/>
<path d="M0 0 C4.02704293 0.52526647 6.09777141 1.55995874 9.0625 4.3125 C9.74441406 4.93898438 10.42632812 5.56546875 11.12890625 6.2109375 C13.11704468 8.11191328 15.09484156 10.01545996 17 12 C16.34 13.65 15.68 15.3 15 17 C14.67 17 14.34 17 14 17 C13.731875 15.906875 13.46375 14.81375 13.1875 13.6875 C11.95011667 9.64643713 11.95011667 9.64643713 9 7 C6.89667109 6.28552357 6.89667109 6.28552357 5 6 C5 5.34 5 4.68 5 4 C4.360625 3.896875 3.72125 3.79375 3.0625 3.6875 C2.381875 3.460625 1.70125 3.23375 1 3 C0.67 2.01 0.34 1.02 0 0 Z " fill="#C74741" transform="translate(251,45)"/>
<path d="M0 0 C9.24 0 18.48 0 28 0 C28 0.66 28 1.32 28 2 C29.5778125 1.9690625 29.5778125 1.9690625 31.1875 1.9375 C34.32704904 1.98896802 36.96883396 2.26517187 40 3 C40 3.33 40 3.66 40 4 C34.72 3.67 29.44 3.34 24 3 C24 2.34 24 1.68 24 1 C16.08 1 8.16 1 0 1 C0 0.67 0 0.34 0 0 Z " fill="#B0453D" transform="translate(230,217)"/>
<path d="M0 0 C3.34249629 0.59687434 5.46436342 1.73603877 8 4 C8 4.66 8 5.32 8 6 C8.66 6.33 9.32 6.66 10 7 C10 8.65 10 10.3 10 12 C6.19364503 8.79239749 2.45436433 5.59253891 -1 2 C-0.67 1.34 -0.34 0.68 0 0 Z " fill="#262424" transform="translate(128,257)"/>
<path d="M0 0 C0.99 0.33 1.98 0.66 3 1 C-2 6 -2 6 -3.53125 7.34375 C-5.40627775 9.45814299 -6.1941075 11.54987165 -7.1875 14.1875 C-7.53167969 15.08855469 -7.87585938 15.98960938 -8.23046875 16.91796875 C-8.48441406 17.60503906 -8.73835938 18.29210937 -9 19 C-9.33 19 -9.66 19 -10 19 C-10.7686344 12.97903055 -9.11667457 9.94630771 -5.703125 5.015625 C-3.93428188 2.92222351 -2.36227505 1.39504432 0 0 Z " fill="#052F10" transform="translate(35,47)"/>
<path d="M0 0 C2.62697064 -0.22137393 5.00893964 -0.28162025 7.625 -0.1875 C8.33140625 -0.17396484 9.0378125 -0.16042969 9.765625 -0.14648438 C11.51074128 -0.1111104 13.25546608 -0.05730221 15 0 C15 0.66 15 1.32 15 2 C17.64 2 20.28 2 23 2 C23 2.33 23 2.66 23 3 C18.16601607 3.73738738 14.79073797 3.96955411 10 3 C7.89676466 2.9340265 5.79164276 2.91437755 3.6875 2.9375 C2.08455078 2.95103516 2.08455078 2.95103516 0.44921875 2.96484375 C-0.35902344 2.97644531 -1.16726562 2.98804688 -2 3 C-1.34 2.01 -0.68 1.02 0 0 Z " fill="#272526" transform="translate(59,29)"/>
<path d="M0 0 C4.05671683 -0.07431978 8.11316846 -0.12868133 12.17041016 -0.16479492 C13.54971218 -0.17985422 14.92896653 -0.20030613 16.30810547 -0.22631836 C18.29373403 -0.26282415 20.27971618 -0.27814853 22.265625 -0.29296875 C23.45961914 -0.3086792 24.65361328 -0.32438965 25.88378906 -0.34057617 C29.23493371 0.02567632 30.57585392 0.7253954 33 3 C32.37738281 2.93941406 31.75476563 2.87882812 31.11328125 2.81640625 C20.75995989 1.87782063 10.38384199 1.45381884 0 1 C0 0.67 0 0.34 0 0 Z " fill="#094219" transform="translate(47,43)"/>
<path d="M0 0 C7.82490023 -0.62599202 14.60937233 1.67485871 22 4 C22 4.66 22 5.32 22 6 C22.99 6.33 23.98 6.66 25 7 C18.88062793 6.52927907 13.60915705 4.99697342 7.83203125 2.9375 C5.22509884 2.07451548 2.70132747 1.47409038 0 1 C0 0.67 0 0.34 0 0 Z " fill="#06220D" transform="translate(84,223)"/>
<path d="M0 0 C3.96 0.33 7.92 0.66 12 1 C10.02 1.99 10.02 1.99 8 3 C8 3.66 8 4.32 8 5 C12.62 5 17.24 5 22 5 C22 5.33 22 5.66 22 6 C19.60385874 6.05425226 17.20896147 6.09379027 14.8125 6.125 C13.80219727 6.15013672 13.80219727 6.15013672 12.77148438 6.17578125 C8.74087691 6.21510425 5.51992127 6.04631621 2 4 C1.34 2.68 0.68 1.36 0 0 Z " fill="#4A4949" transform="translate(254,232)"/>
<path d="M0 0 C0.66 0.33 1.32 0.66 2 1 C1.38125 1.7425 0.7625 2.485 0.125 3.25 C-1.60437281 5.48801188 -2.86106661 7.43739987 -4 10 C-5.65 10 -7.3 10 -9 10 C-9 8.02 -9 6.04 -9 4 C-8.34 3.67 -7.68 3.34 -7 3 C-6.01 3.33 -5.02 3.66 -4 4 C-2.68 2.68 -1.36 1.36 0 0 Z " fill="#262423" transform="translate(165,257)"/>
<path d="M0 0 C1.32 0 2.64 0 4 0 C4 0.66 4 1.32 4 2 C3.01 2.33 2.02 2.66 1 3 C1.66 3.66 2.32 4.32 3 5 C2.01 5 1.02 5 0 5 C0 5.66 0 6.32 0 7 C-1.32 7.33 -2.64 7.66 -4 8 C-4 7.34 -4 6.68 -4 6 C-5.98 6.99 -5.98 6.99 -8 8 C-8.33 7.34 -8.66 6.68 -9 6 C-2.25 2 -2.25 2 0 2 C0 1.34 0 0.68 0 0 Z " fill="#212021" transform="translate(184,243)"/>
<path d="M0 0 C2.97 0 5.94 0 9 0 C8.67 0.66 8.34 1.32 8 2 C8.99 2.66 9.98 3.32 11 4 C8.51245214 5.24377393 6.77344699 5.13306235 4 5.125 C3.113125 5.12757813 2.22625 5.13015625 1.3125 5.1328125 C-1 5 -1 5 -3 4 C-2.67 3.34 -2.34 2.68 -2 2 C0.31 2.66 2.62 3.32 5 4 C5 3.34 5 2.68 5 2 C3.35 2 1.7 2 0 2 C0 1.34 0 0.68 0 0 Z " fill="#474746" transform="translate(144,270)"/>
<path d="M0 0 C2.12239842 0.26951091 4.24479585 0.53902954 6.3671875 0.80859375 C10.63205174 1.11865065 14.77546367 0.57326693 19 0 C18.67 0.66 18.34 1.32 18 2 C14.65109379 3.11630207 12.02460739 3.16765424 8.5 3.1875 C7.3553125 3.20167969 6.210625 3.21585938 5.03125 3.23046875 C2 3 2 3 -1 1 C-0.67 0.67 -0.34 0.34 0 0 Z " fill="#0A0907" transform="translate(19,234)"/>
<path d="M0 0 C14.65508021 1.13101604 14.65508021 1.13101604 19 2 C19.33 2.66 19.66 3.32 20 4 C17.22882696 3.85919445 14.45817359 3.71256882 11.6875 3.5625 C10.50897461 3.50352539 10.50897461 3.50352539 9.30664062 3.44335938 C8.1706543 3.38051758 8.1706543 3.38051758 7.01171875 3.31640625 C5.96697388 3.26141968 5.96697388 3.26141968 4.90112305 3.20532227 C3 3 3 3 0 2 C0 1.34 0 0.68 0 0 Z " fill="#0F4422" transform="translate(74,220)"/>
<path d="M0 0 C0.66 0.37125 1.32 0.7425 2 1.125 C2.99 1.455 3.98 1.785 5 2.125 C5 4.105 5 6.085 5 8.125 C3.51714758 7.17237966 2.03881799 6.21271595 0.5625 5.25 C-0.26121094 4.71632813 -1.08492188 4.18265625 -1.93359375 3.6328125 C-4 2.125 -4 2.125 -5 0.125 C-2 -0.875 -2 -0.875 0 0 Z " fill="#282727" transform="translate(122,59.875)"/>
<path d="M0 0 C4.12751449 0.60698743 7.3321148 2.03810791 11 4 C11 4.66 11 5.32 11 6 C10.21625 5.814375 9.4325 5.62875 8.625 5.4375 C6.02910225 4.74037734 6.02910225 4.74037734 4 6 C1.96855359 5.06553465 -0.03533587 4.06775224 -2 3 C-1.34 2.67 -0.68 2.34 0 2 C0 1.34 0 0.68 0 0 Z " fill="#222220" transform="translate(104,50)"/>
<path d="M0 0 C0 0.99 0 1.98 0 3 C-4.455 3.495 -4.455 3.495 -9 4 C-9 4.66 -9 5.32 -9 6 C-9.99 6 -10.98 6 -12 6 C-12 4.68 -12 3.36 -12 2 C-10.37548581 1.66430703 -8.75037083 1.3315204 -7.125 1 C-6.22007812 0.814375 -5.31515625 0.62875 -4.3828125 0.4375 C-2 0 -2 0 0 0 Z " fill="#ECECEB" transform="translate(198,29)"/>
<path d="M0 0 C-3.4352048 2.29013653 -4.985331 2.17842973 -9 2 C-9 2.66 -9 3.32 -9 4 C-9.99 4.33 -10.98 4.66 -12 5 C-12.33 5.66 -12.66 6.32 -13 7 C-15.5625 7.625 -15.5625 7.625 -18 8 C-17.67 6.68 -17.34 5.36 -17 4 C-13.535 3.505 -13.535 3.505 -10 3 C-10 2.34 -10 1.68 -10 1 C-6.59437148 0.22157062 -3.49234244 -0.09978121 0 0 Z " fill="#C9C8C9" transform="translate(211,239)"/>
<path d="M0 0 C7.45475911 0.48883666 7.45475911 0.48883666 10 2.875 C11 5 11 5 11 8 C8.5625 7.1875 8.5625 7.1875 6 6 C5.67 5.01 5.34 4.02 5 3 C3.67696283 2.6278958 2.34262065 2.29369827 1 2 C0.67 1.34 0.34 0.68 0 0 Z " fill="#252525" transform="translate(126,49)"/>
<path d="M0 0 C2.64 0.66 5.28 1.32 8 2 C5.84733158 4.15266842 4.15226256 4.93474462 1.375 6.125 C0.55773437 6.47820312 -0.25953125 6.83140625 -1.1015625 7.1953125 C-1.72804687 7.46085938 -2.35453125 7.72640625 -3 8 C-3 7.01 -3 6.02 -3 5 C-2.01 4.34 -1.02 3.68 0 3 C0 2.01 0 1.02 0 0 Z " fill="#262526" transform="translate(160,243)"/>
<path d="M0 0 C1.65 0 3.3 0 5 0 C5 0.66 5 1.32 5 2 C6.32 2.33 7.64 2.66 9 3 C8.67 4.32 8.34 5.64 8 7 C7.01 7 6.02 7 5 7 C4.34 6.01 3.68 5.02 3 4 C2.34 4 1.68 4 1 4 C0.67 2.68 0.34 1.36 0 0 Z " fill="#262626" transform="translate(117,234)"/>
<path d="M0 0 C0.66 0 1.32 0 2 0 C2.86646667 1.43011973 3.71781829 2.86940619 4.5625 4.3125 C5.03816406 5.11300781 5.51382812 5.91351563 6.00390625 6.73828125 C7 9 7 9 6 12 C2 7.375 2 7.375 2 4 C1.34 4 0.68 4 0 4 C-0.33 3.01 -0.66 2.02 -1 1 C-0.67 0.67 -0.34 0.34 0 0 Z " fill="#262626" transform="translate(279,46)"/>
<path d="M0 0 C1.04449911 3.13349732 0.93423645 3.98968256 0 7 C-0.598125 7.103125 -1.19625 7.20625 -1.8125 7.3125 C-4.28243264 8.08876455 -5.32251235 9.07088921 -7 11 C-7.33 10.34 -7.66 9.68 -8 9 C-7.34 9 -6.68 9 -6 9 C-5.67 8.01 -5.34 7.02 -5 6 C-4.34 5.34 -3.68 4.68 -3 4 C-3.66 3.67 -4.32 3.34 -5 3 C-3.35 2.01 -1.7 1.02 0 0 Z " fill="#302E2E" transform="translate(31,31)"/>
<path d="M0 0 C0.66 1.32 1.32 2.64 2 4 C4.64 4 7.28 4 10 4 C10 4.66 10 5.32 10 6 C6.37 6 2.74 6 -1 6 C-1.33 4.68 -1.66 3.36 -2 2 C-1.34 1.34 -0.68 0.68 0 0 Z " fill="#272224" transform="translate(48,35)"/>
<path d="M0 0 C1.98 0 3.96 0 6 0 C6 0.66 6 1.32 6 2 C9.3 2.33 12.6 2.66 16 3 C16 3.66 16 4.32 16 5 C15.29488281 4.85691406 14.58976562 4.71382812 13.86328125 4.56640625 C10.97588399 3.99522944 8.08390614 3.46094689 5.1875 2.9375 C3.72376953 2.67259766 3.72376953 2.67259766 2.23046875 2.40234375 C1.49441406 2.26957031 0.75835937 2.13679687 0 2 C0 1.34 0 0.68 0 0 Z " fill="#37C671" transform="translate(82,219)"/>
<path d="M0 0 C0.66 0.33 1.32 0.66 2 1 C-1.96 4.96 -5.92 8.92 -10 13 C-10.66 12.67 -11.32 12.34 -12 12 C-8.57833482 7.29521038 -4.42094803 3.72346836 0 0 Z " fill="#D4D3D1" transform="translate(167,260)"/>
<path d="M0 0 C5.12583611 -0.10251672 9.94997778 -0.03590199 15 1 C15 1.66 15 2.32 15 3 C9.5814234 3.22577402 5.22512279 2.46670113 0 1 C0 0.67 0 0.34 0 0 Z " fill="#282624" transform="translate(70,233)"/>
<path d="M0 0 C-2.24553936 0.72649803 -4.49433488 1.43129347 -6.75 2.125 C-8.00296875 2.51945312 -9.2559375 2.91390625 -10.546875 3.3203125 C-14 4 -14 4 -16.453125 3.1171875 C-16.96359375 2.74851563 -17.4740625 2.37984375 -18 2 C-15.75256955 1.46818825 -13.50192898 0.94992874 -11.25 0.4375 C-9.99703125 0.14746094 -8.7440625 -0.14257812 -7.453125 -0.44140625 C-4.40526252 -0.93444283 -2.82358172 -1.07666879 0 0 Z " fill="#CA534A" transform="translate(209,49)"/>
<path d="M0 0 C1.44010481 0.25662245 2.8770687 0.53090821 4.3125 0.8125 C5.11300781 0.96332031 5.91351563 1.11414062 6.73828125 1.26953125 C9 2 9 2 12 5 C9.03 4.67 6.06 4.34 3 4 C3 3.34 3 2.68 3 2 C2.01 1.67 1.02 1.34 0 1 C0 0.67 0 0.34 0 0 Z M0 4 C3 5 3 5 3 5 Z " fill="#101010" transform="translate(105,36)"/>
<path d="M0 0 C0.8353125 0.7734375 0.8353125 0.7734375 1.6875 1.5625 C0.1096875 1.7790625 0.1096875 1.7790625 -1.5 2 C-4.46710549 2.43776966 -7.38044366 2.94054866 -10.3125 3.5625 C-10.3125 2.9025 -10.3125 2.2425 -10.3125 1.5625 C-9.3225 1.5625 -8.3325 1.5625 -7.3125 1.5625 C-7.3125 0.9025 -7.3125 0.2425 -7.3125 -0.4375 C-2.88173077 -1.79134615 -2.88173077 -1.79134615 0 0 Z " fill="#2B292A" transform="translate(221.3125,232.4375)"/>
<path d="M0 0 C3 1 3 1 4.203125 2.92578125 C4.54859375 3.71339844 4.8940625 4.50101563 5.25 5.3125 C5.60578125 6.09238281 5.9615625 6.87226562 6.328125 7.67578125 C7.0711335 10.24607227 6.88750996 11.51383429 6 14 C5.18247697 12.41925436 4.37118003 10.83528777 3.5625 9.25 C3.11003906 8.36828125 2.65757812 7.4865625 2.19140625 6.578125 C1.16544602 4.35801434 0.48491397 2.38555381 0 0 Z " fill="#280A06" transform="translate(265,52)"/>
<path d="M0 0 C2.97 0.495 2.97 0.495 6 1 C6 1.66 6 2.32 6 3 C6.804375 3.268125 7.60875 3.53625 8.4375 3.8125 C9.283125 4.204375 10.12875 4.59625 11 5 C11.33 5.99 11.66 6.98 12 8 C7.44328408 6.48109469 3.68276708 4.04597738 0 1 C0 0.67 0 0.34 0 0 Z " fill="#100F0F" transform="translate(119,43)"/>
<path d="M0 0 C3.3 0 6.6 0 10 0 C10 0.66 10 1.32 10 2 C10.99 2.33 11.98 2.66 13 3 C6.07 2.505 6.07 2.505 -1 2 C-0.67 1.34 -0.34 0.68 0 0 Z " fill="#272022" transform="translate(240,39)"/>
<path d="M0 0 C0.99 0.33 1.98 0.66 3 1 C2.67 1.33 2.34 1.66 2 2 C4.31 3.98 6.62 5.96 9 8 C8.01 8.33 7.02 8.66 6 9 C5.566875 8.525625 5.13375 8.05125 4.6875 7.5625 C2.97690387 5.76313043 2.97690387 5.76313043 0 5 C-0.33 4.01 -0.66 3.02 -1 2 C-0.67 1.34 -0.34 0.68 0 0 Z " fill="#272623" transform="translate(263,32)"/>
<path d="M0 0 C0 0.33 0 0.66 0 1 C-5.445 1.495 -5.445 1.495 -11 2 C-11 2.66 -11 3.32 -11 4 C-12.65 4 -14.3 4 -16 4 C-11.84868392 -1.02527736 -5.98995915 -0.10152473 0 0 Z " fill="#BC4741" transform="translate(217,219)"/>
<path d="M0 0 C0.33 0.66 0.66 1.32 1 2 C-1.33333333 4.33333333 -3.66666667 6.66666667 -6 9 C-7.32 8.67 -8.64 8.34 -10 8 C-6.7 5.36 -3.4 2.72 0 0 Z " fill="#2D2C2C" transform="translate(166,46)"/>
<path d="M0 0 C-2.79655447 1.45879493 -5.58256419 2.65385052 -8.5625 3.6875 C-9.32691406 3.95949219 -10.09132812 4.23148438 -10.87890625 4.51171875 C-13 5 -13 5 -16 4 C-5.62642369 -0.59225513 -5.62642369 -0.59225513 0 0 Z " fill="#230504" transform="translate(204,47)"/>
<path d="M0 0 C4.03810445 1.34603482 5.47295076 3.65336723 8 7 C8 7.66 8 8.32 8 9 C4.63704165 7.55873214 2.37072898 5.79407345 0 3 C0 2.01 0 1.02 0 0 Z " fill="#0D0B0C" transform="translate(130,68)"/>
<path d="M0 0 C0.66 0.66 1.32 1.32 2 2 C1.625 5.625 1.625 5.625 1 9 C0.34 8.67 -0.32 8.34 -1 8 C-1.66 8.99 -2.32 9.98 -3 11 C-3 9.35 -3 7.7 -3 6 C-2.34 6 -1.68 6 -1 6 C-0.67 4.02 -0.34 2.04 0 0 Z " fill="#363635" transform="translate(12,50)"/>
<path d="M0 0 C0.66 0.33 1.32 0.66 2 1 C0.68 1.33 -0.64 1.66 -2 2 C-2 2.66 -2 3.32 -2 4 C-4.8125 6.1875 -4.8125 6.1875 -8 8 C-8.99 7.67 -9.98 7.34 -11 7 C-9.73299277 6.0158875 -8.4612381 5.03788503 -7.1875 4.0625 C-6.47980469 3.51722656 -5.77210937 2.97195312 -5.04296875 2.41015625 C-3 1 -3 1 0 0 Z " fill="#35AC65" transform="translate(44,44)"/>
<path d="M0 0 C0.66 0.33 1.32 0.66 2 1 C1.8125 2.8125 1.8125 2.8125 1 5 C-1.5625 6.75 -1.5625 6.75 -4 8 C-3.6875 5.125 -3.6875 5.125 -3 2 C-2.01 1.34 -1.02 0.68 0 0 Z " fill="#292829" transform="translate(172,252)"/>
<path d="M0 0 C5.53846154 0.61538462 5.53846154 0.61538462 7.875 2.5625 C8.431875 3.2740625 8.431875 3.2740625 9 4 C6.69 4 4.38 4 2 4 C1.34 2.68 0.68 1.36 0 0 Z " fill="#EEECED" transform="translate(113,252)"/>
<path d="M0 0 C3.82097239 0.53069061 6.06171403 1.49701566 9 4 C8.67 4.99 8.34 5.98 8 7 C6.66382648 6.02471263 5.3311249 5.04466681 4 4.0625 C3.2575 3.51722656 2.515 2.97195312 1.75 2.41015625 C1.1725 1.94480469 0.595 1.47945312 0 1 C0 0.67 0 0.34 0 0 Z " fill="#100F0F" transform="translate(124,238)"/>
<path d="M0 0 C-0.99 0.33 -1.98 0.66 -3 1 C-3 1.66 -3 2.32 -3 3 C-7.455 3.495 -7.455 3.495 -12 4 C-7.96889361 0.80291562 -5.14313574 -0.13900367 0 0 Z " fill="#100E0E" transform="translate(204,239)"/>
<path d="M0 0 C0 2.83967231 -0.40267181 5.23735711 -1 8 C-2.32 7.67 -3.64 7.34 -5 7 C-4.75 4.625 -4.75 4.625 -4 2 C-1.9375 0.6875 -1.9375 0.6875 0 0 Z " fill="#EAE9E7" transform="translate(291,221)"/>
<path d="M0 0 C1.45945288 0.08708669 2.91765868 0.19526907 4.375 0.3125 C5.59316406 0.39951172 5.59316406 0.39951172 6.8359375 0.48828125 C9 1 9 1 11 4 C2.83035714 3.33035714 2.83035714 3.33035714 0 0 Z " fill="#052B0F" transform="translate(78,44)"/>
<path d="M0 0 C-2.40436026 3.60654039 -3.94679607 3.85452932 -8 5 C-8.33 4.01 -8.66 3.02 -9 2 C-3.375 -1.125 -3.375 -1.125 0 0 Z " fill="#2F2F2F" transform="translate(185,37)"/>
<path d="M0 0 C0.66 0.33 1.32 0.66 2 1 C0.8803014 2.00593243 -0.2459412 3.0045849 -1.375 4 C-2.00148438 4.556875 -2.62796875 5.11375 -3.2734375 5.6875 C-5 7 -5 7 -7 7 C-5.55609075 3.19333016 -3.65047197 1.73397418 0 0 Z " fill="#111010" transform="translate(28,34)"/>
<path d="M0 0 C2.31 0.66 4.62 1.32 7 2 C6.01 2.495 6.01 2.495 5 3 C5 3.99 5 4.98 5 6 C2 5 2 5 -1 3 C-0.67 2.01 -0.34 1.02 0 0 Z " fill="#2C2B2B" transform="translate(256,28)"/>
<path d="M0 0 C0 0.66 0 1.32 0 2 C0.66 2.66 1.32 3.32 2 4 C0.68 4.33 -0.64 4.66 -2 5 C-2 4.34 -2 3.68 -2 3 C-3.98 3.99 -3.98 3.99 -6 5 C-6.33 4.34 -6.66 3.68 -7 3 C-2.25 0 -2.25 0 0 0 Z " fill="#353435" transform="translate(182,246)"/>
<path d="M0 0 C1 3 1 3 -0.1875 5.5625 C-2.02001957 8.02692286 -3.17445421 8.92824125 -6 10 C-4 6.66666667 -2 3.33333333 0 0 Z " fill="#090907" transform="translate(285,224)"/>
<path d="M0 0 C1.45880109 0.14107747 2.91703551 0.28802415 4.375 0.4375 C5.59316406 0.55931641 5.59316406 0.55931641 6.8359375 0.68359375 C9 1 9 1 11 2 C10.67 2.66 10.34 3.32 10 4 C6.20696275 2.99806563 3.28463659 2.18975773 0 0 Z " fill="#33CC72" transform="translate(86,49)"/>
<path d="M0 0 C0.99 0 1.98 0 3 0 C3.66 2.31 4.32 4.62 5 7 C4.34 7 3.68 7 3 7 C3 6.34 3 5.68 3 5 C2.01 4.67 1.02 4.34 0 4 C0 2.68 0 1.36 0 0 Z " fill="#292928" transform="translate(122,252)"/>
<path d="M0 0 C4.95 0.99 4.95 0.99 10 2 C10 2.33 10 2.66 10 3 C6.7 3 3.4 3 0 3 C0 2.01 0 1.02 0 0 Z " fill="#232524" transform="translate(71,221)"/>
<path d="M0 0 C2.31 0 4.62 0 7 0 C7.33 0.99 7.66 1.98 8 3 C2.25 3.125 2.25 3.125 0 2 C0 1.34 0 0.68 0 0 Z " fill="#262223" transform="translate(82,42)"/>
<path d="M0 0 C1.4540625 0.0309375 1.4540625 0.0309375 2.9375 0.0625 C2.6075 0.7225 2.2775 1.3825 1.9375 2.0625 C-1.53575181 3.2202506 -4.42317448 3.13116652 -8.0625 3.0625 C-7.423125 2.753125 -6.78375 2.44375 -6.125 2.125 C-2.0825 0.0425 -2.0825 0.0425 0 0 Z " fill="#262724" transform="translate(205.0625,31.9375)"/>
<path d="M0 0 C3.99455527 0.61454696 6.74466336 2.70646737 10 5 C9.01 5.33 8.02 5.66 7 6 C5.17578125 5.0390625 5.17578125 5.0390625 3.3125 3.625 C2.68988281 3.16351563 2.06726563 2.70203125 1.42578125 2.2265625 C0.95527344 1.82179687 0.48476562 1.41703125 0 1 C0 0.67 0 0.34 0 0 Z " fill="#0C090A" transform="translate(109,54)"/>
<path d="M0 0 C-1.13474948 3.40424844 -1.96811304 4.21653709 -5 6 C-5.99 5.67 -6.98 5.34 -8 5 C-2.25 0 -2.25 0 0 0 Z " fill="#0E0E0E" transform="translate(180,249)"/>
<path d="M0 0 C7.57142857 1.85714286 7.57142857 1.85714286 10 5 C7.03 4.505 7.03 4.505 4 4 C4 3.34 4 2.68 4 2 C2.68 1.67 1.36 1.34 0 1 C0 0.67 0 0.34 0 0 Z " fill="#090808" transform="translate(105,244)"/>
<path d="M0 0 C0.625 1.875 0.625 1.875 1 4 C0.34 4.66 -0.32 5.32 -1 6 C-1.99 5.67 -2.98 5.34 -4 5 C-3.34 4.34 -2.68 3.68 -2 3 C-2.66 2.34 -3.32 1.68 -4 1 C-2 0 -2 0 0 0 Z " fill="#373636" transform="translate(172,236)"/>
<path d="M0 0 C2.0625 0.4375 2.0625 0.4375 4 1 C2.625 2.5 2.625 2.5 1 4 C0.34 4 -0.32 4 -1 4 C-1.33 4.66 -1.66 5.32 -2 6 C-1.125 1.125 -1.125 1.125 0 0 Z " fill="#E9E9E7" transform="translate(282,232)"/>
<path d="M0 0 C3.82097239 0.53069061 6.06171403 1.49701566 9 4 C6 5 6 5 2.8125 3.5625 C1.884375 3.046875 0.95625 2.53125 0 2 C0 1.34 0 0.68 0 0 Z " fill="#161515" transform="translate(110,230)"/>
<path d="M0 0 C0 0.66 0 1.32 0 2 C0.99 2.33 1.98 2.66 3 3 C-4.75 2.25 -4.75 2.25 -7 0 C-4.3333581 -1.33332095 -2.83319697 -0.67102033 0 0 Z " fill="#111110" transform="translate(106,227)"/>
<path d="M0 0 C1.98 0 3.96 0 6 0 C6.33 0.66 6.66 1.32 7 2 C6.01 2 5.02 2 4 2 C3.01 3.485 3.01 3.485 2 5 C1.34 5 0.68 5 0 5 C0 3.33333333 0 1.66666667 0 0 Z " fill="#232224" transform="translate(91,34)"/>
</svg>
