<?xml version="1.0" encoding="UTF-8" standalone="no"?>
<svg
   version="1.1"
   width="297"
   height="296"
   id="svg10"
   xmlns="http://www.w3.org/2000/svg"
>
  <defs
     id="defs14" />
  <!--<path d="M0 0 C98.01 0 196.02 0 297 0 C297 97.68 297 195.36 297 296 C198.99 296 100.98 296 0 296 C0 198.32 0 100.64 0 0 Z " fill="#17BC5A" transform="translate(0,0)"/>-->
  <path
     d="m 242.37928,36.99867 c 1.33858,-0.01441 2.67715,-0.02885 4.05628,-0.0437 8.66901,0.0419 14.28292,0.438544 21.12986,6.057945 0.87344,0.894145 1.74688,1.78829 2.64679,2.709531 0.88443,0.885903 1.76886,1.771808 2.68009,2.684557 4.3788,5.229138 5.97676,9.544938 5.96809,16.34805 0.005,1.031732 0.005,1.031732 0.0106,2.084306 0.008,2.289694 -0.007,4.578652 -0.0223,6.868302 8.4e-4,1.647306 0.003,3.294611 0.007,4.941914 0.005,4.461979 -0.009,8.923696 -0.0272,13.385634 -0.016,4.668027 -0.0148,9.336061 -0.0156,14.004121 -0.004,7.83281 -0.0199,15.66552 -0.0439,23.49829 -0.0308,10.06636 -0.0418,20.13263 -0.0465,30.19903 -0.004,8.64599 -0.0175,17.29194 -0.0323,25.93792 -0.004,2.78467 -0.007,5.56935 -0.0104,8.35403 -0.005,4.36492 -0.016,8.72979 -0.0314,13.09469 -0.005,1.60605 -0.008,3.21211 -0.009,4.81816 -0.002,2.18293 -0.0109,4.36585 -0.0204,6.54876 -0.003,1.22432 -0.006,2.44864 -0.01,3.71005 -0.14012,2.72578 -0.14012,2.72578 -1.2055,3.79128 -2.87766,-0.0969 -5.72032,-0.25296 -8.58958,-0.46615 -0.80821,-0.0556 -1.61642,-0.11125 -2.44912,-0.16857 -2.00279,-0.13858 -4.00509,-0.28404 -6.0073,-0.43078 0,-0.70322 0,-1.40646 0,-2.131 -21.04533,0.31398 -21.04533,0.31398 -41.90754,2.76781 -3.11234,0.4701 -6.08752,0.49824 -9.23047,0.42869 0,0.70323 0,1.40646 0,2.131 -1.02726,0.20602 -2.05451,0.41205 -3.1129,0.62432 -1.34586,0.27745 -2.69173,0.55489 -4.07839,0.84074 -1.33488,0.27195 -2.66976,0.54391 -4.04509,0.8241 -3.53868,0.72961 -3.53868,0.72961 -6.02603,2.08105 -1.91435,0.95729 -1.91435,0.95729 -6.17585,0.95729 0,0.70322 0,1.40646 0,2.131 -1.34974,0.71822 -2.70468,1.4267 -4.06174,2.13099 -0.75396,0.39557 -1.50792,0.79113 -2.28473,1.19869 -2.17653,0.93231 -2.17653,0.93231 -5.37266,0.93231 0,0.70323 0,1.40646 0,2.131 -1.75787,0.35161 -3.51574,0.70323 -5.32687,1.06549 0,0.70324 0,1.40646 0,2.131 -1.4063,0.35162 -2.81259,0.70323 -4.2615,1.0655 0,0.70323 0,1.40646 0,2.131 -1.4063,0.35162 -2.8126,0.70323 -4.26151,1.0655 0,0.70323 0,1.40646 0,2.131 -1.05472,0.35161 -2.10944,0.70323 -3.19612,1.0655 -0.0498,-22.67309 -0.0873,-45.34616 -0.1104,-68.01928 -0.011,-10.52753 -0.026,-21.055 -0.0503,-31.5825 -0.0212,-9.17575 -0.035,-18.35146 -0.0397,-27.52723 -0.003,-4.8585 -0.009,-9.71693 -0.0248,-14.57542 -0.0145,-4.57386 -0.0189,-9.14763 -0.0157,-13.721521 -5.8e-4,-1.677696 -0.005,-3.355391 -0.013,-5.03307 -0.0106,-2.2935 -0.008,-4.586629 -0.002,-6.880139 -0.002,-1.282712 -0.004,-2.565426 -0.006,-3.887009 0.68334,-9.166794 5.03406,-14.108885 11.69804,-19.897698 11.13266,-9.189929 11.13266,-9.189929 15.19824,-9.189929 0,-0.703229 0,-1.406458 0,-2.130998 5.99274,-3.196496 5.99274,-3.196496 9.58838,-3.196496 0,-0.70323 0,-1.406459 0,-2.130998 1.68574,-0.360354 3.37286,-0.714267 5.06053,-1.065499 0.93936,-0.197783 1.87872,-0.395567 2.84655,-0.599343 2.74667,-0.466156 2.74667,-0.466156 7.00817,-0.466156 0,-0.703229 0,-1.406459 0,-2.130998 11.39155,-2.769901 22.5062,-3.543222 34.22518,-3.596059 z"
     fill="#ee3e32"
     id="path2"
     style="stroke-width:1.06544" />
  <path
     d="m 194,45.082765 -0.1019,181.512175 c -6,3.10696 -9.8981,2.83457 -9.8981,2.83457 -1.26692,0.69811 -2.53871,1.38674 -3.8125,2.07131 -0.7077,0.38449 -1.41539,0.76897 -2.14453,1.16511 C 176,233.57213 173,235.64344 173,235.64344 c -1.65,0.34177 -5,3.10697 -5,3.10697 -1.32,0.34177 -4,3.10697 -4,3.10697 -1.32,0.34176 1.39505,4.35831 0.0351,4.71043 L 160,244.96434 c -0.99,0.34177 -1.98,0.68354 -3,1.03566 -0.0467,-22.03804 -0.082,-44.07607 -0.10362,-66.11416 -0.0103,-10.23266 -0.0244,-20.46528 -0.0473,-30.69792 -0.0199,-8.91874 -0.0328,-17.83746 -0.0373,-26.75623 -0.003,-4.72242 -0.009,-9.44477 -0.0233,-14.16717 -0.0136,-4.44576 -0.0178,-8.891429 -0.0148,-13.33721 -5.5e-4,-1.630708 -0.005,-3.26142 -0.0122,-4.892109 -0.01,-2.229264 -0.008,-4.458164 -0.002,-6.687436 -0.002,-1.246787 -0.004,-2.493573 -0.006,-3.778141 0.64168,-8.910045 4.72542,-13.713715 10.98047,-19.340392 C 178.18389,51.2967 178.18389,51.2967 182,51.2967 v -2.071311 c 1.43429,-0.697561 2.87257,-1.386326 4.3125,-2.071312 0.80051,-0.384487 1.60102,-0.768974 2.42578,-1.165113 C 191,45.082765 191,45.082765 194,45.082765 Z"
     fill="#f8f6f5"
     id="path8"
     style="stroke-width:1.01767" />
  <path
     d="m 59.660065,42.654663 c -9.306368,-0.546229 -20.006989,0.258314 -26.125,8.350707 -6.453841,5.295133 -8.902278,13.771809 -8.129131,21.857603 0.162322,49.531517 0.0062,99.070877 0.339155,148.597807 2.827393,4.06447 13.608521,1.32607 17.039826,0.14028 4.948982,-2.50311 52.908875,13.01883 59.695675,12.84517 8.82952,0.52613 37.68027,-96.75043 37.39041,-150.885345 -1.29936,-11.64977 -12.03785,-18.494826 -20.44048,-25.145054 -4.7148,-1.44282 -8.67559,-6.172327 -13.64529,-7.14384 -2.2548,-3.404165 -10.666834,-2.181544 -13.999995,-3.607463 -1.726,-4.280216 -10.49704,-2.722946 -14.950228,-4.162184 C 71.131495,42.896378 65.3934,42.68061 59.660065,42.654663 Z"
     fill="#ee3e32"
     id="path2-0"
     style="fill:#17bc5a;fill-opacity:1;stroke-width:1.00992" />
  <path
     d="m 99.477551,47.100292 c 10.673599,3.6004 17.805369,7.863286 26.341749,15.378844 1.15386,0.961478 1.15386,0.961478 2.33102,1.94238 0.69349,0.585477 1.38698,1.170954 2.10148,1.774174 0.59292,0.499571 1.18586,0.999143 1.79675,1.513854 0.92857,0.963461 0.92857,0.963461 1.8759,1.946385 1.29401,1.330837 1.29401,1.330837 2.61416,2.68856 4.1769,6.049526 3.1114,13.766411 3.02665,20.832009 -0.001,1.66771 -6.3e-4,3.335423 0.002,5.003131 0.001,4.513811 -0.0283,9.026921 -0.0637,13.540571 -0.0317,4.72206 -0.0346,9.44412 -0.0406,14.16627 -0.0157,8.93591 -0.0572,17.87151 -0.10814,26.80728 -0.0566,10.17563 -0.0845,20.35127 -0.10991,30.52702 -0.0529,20.92659 -0.14199,41.85289 -0.25492,62.77923 -3.89204,-1.92589 -11.51284,0.0106 -15.08406,-2.46466 -2.0498,-1.34393 -26.405853,-12.67193 -28.589654,-13.77689 L 99.477338,47.100292 Z"
     fill="#f2f4f1"
     id="path6"
     style="stroke-width:1.01918" />
  <path
     d="m 48.027344,25.867187 c 14.648292,-0.234461 29.359079,0.239255 43.660156,3.570313 10.36319,3.692496 19.98168,7.107539 29.3125,12.562499 5.74295,4.568182 12.37843,7.920959 18.81283,13.584635 9.52791,13.580854 17.60228,-6.284884 26.5652,-10.442841 7.64176,-3.591906 10.8957,-7.249042 18.82705,-10.032418 3.15072,-1.881707 20.269,-5.398824 23.5371,-6.574219 13.55249,-3.713066 28.1759,-3.090115 42.19654,-2.124559 C 257.48829,26.443551 261.86076,31.010054 266,32 c 2.39329,4.703723 12.19628,9.145396 14.50243,13.999999 6.15991,7.562093 8.39729,18.348494 7.64173,28.30053 -0.0705,49.013131 0.30259,98.044451 -0.0394,147.046901 0.17031,8.1093 -6.5405,15.00913 -13.91718,16.67157 -11.00753,0.63873 -21.78252,-1.84422 -32.80797,-1.10712 -13.2098,0.69703 -26.86265,-1.88057 -39.52595,2.85505 -4.87437,4.22515 -12.1486,5.95389 -16.356,8.23279 -4.15905,4.15915 -11.34264,7.01366 -16.68507,12.375 -7.65195,5.94108 -11.81109,17.05875 -22.74833,14.96291 -9.08505,-1.51328 -14.85773,-11.72012 -21.06417,-16.33791 -3.9659,-4.1909 -9.98358,-7.61135 -13.42533,-10.47511 -3.11149,-2.13959 -6.06822,-2.99333 -10.57467,-5.52489 -8.649466,-1.18113 -16.832301,-4.93703 -25.759186,-4.15362 -17.826769,-0.37069 -35.669503,-1.14498 -53.4664,-0.3334 C 10.948806,236.24932 6.371451,224.39413 7.620929,214.37438 7.821871,163.60937 7.567082,112.8317 8.003383,62.07385 8.4271506,57.617953 13.06867,45.041325 20.70084,38.372394 28.346334,31.714899 37.314709,25.056716 48.027344,25.867187 Z M 32,52.999999 C 22.162709,61.325293 26.73947,75.483875 25.664117,86.603472 25.801058,131.06889 25.85253,175.53458 25.999998,220 c 23.994242,-1.7345 49.092068,-2.97727 72.059753,5.18672 7.806939,4.19418 19.441339,6.59129 24.600779,11.17107 7.80535,4.13867 19.73964,16.6977 16.40266,-0.37735 0.14511,-50.02675 0.66011,-100.07039 0.53375,-150.086748 C 136.81774,71.78686 122.92435,64.565425 112.58782,56.37313 100.38703,50.720131 87.935322,45.349528 72.816849,44.478086 58.915774,43.802503 41.752103,39.769529 32,52.999999 Z m 173,-6 c -3.67482,1.817516 -9.74024,2.502573 -14,4.751215 -5.3455,2.700744 -10.75774,6.384803 -17.16255,9.839664 -8.67284,7.528704 -19.79706,15.46752 -16.95992,28.738896 0.0419,51.890056 0.071,103.780156 0.12167,155.670226 3.68455,-1.71201 5.71312,-4.19057 8.45757,-6.36439 3.08196,-2.03952 6.48335,-3.63826 9.02887,-5.8542 8.59657,-3.62824 13.26161,-7.64775 23.50038,-9.19115 7.11076,-0.35972 8.42204,-5.004 15.72802,-4.27385 13.35508,-1.79756 34.58751,-2.62918 40.28516,-2.31641 3.41589,1.80894 18.26031,5.45791 17.16377,-5.52915 -0.0139,-48.31438 0.69879,-96.65362 0.18758,-144.953445 C 269.36172,53.879572 256.03015,42.897151 241.92401,43.581986 229.55308,44.182579 211.76606,45.864274 205,46.999999 Z"
     fill="#1e1f1d"
     id="path4"
     style="fill:#808080" />
</svg>
